<svg width="50" height="50" viewBox="0 0 50 50" fill="none" xmlns="http://www.w3.org/2000/svg">
<g clip-path="url(#clip0_9144_4886)">
<path fill-rule="evenodd" clip-rule="evenodd" d="M37.6248 46.1666H12.3748C8.31233 46.1666 5.20816 44.6875 3.62483 42.0208C2.06232 39.3541 2.27066 35.9166 4.24983 32.3541L16.8748 9.64575C18.9582 5.89575 21.8331 3.83325 24.9998 3.83325C28.1665 3.83325 31.0415 5.89575 33.1248 9.64575L45.7498 32.375C47.729 35.9375 47.9581 39.3541 46.3748 42.0416C44.7915 44.6875 41.6873 46.1666 37.6248 46.1666ZM24.9998 30.7291C24.1456 30.7291 23.4373 30.0208 23.4373 29.1666V18.75C23.4373 17.8958 24.1456 17.1875 24.9998 17.1875C25.854 17.1875 26.5623 17.8958 26.5623 18.75V29.1666C26.5623 30.0208 25.854 30.7291 24.9998 30.7291ZM24.5831 37.4585C24.729 37.4794 24.8748 37.5002 24.9998 37.5002C25.1248 37.5002 25.2706 37.4794 25.3956 37.4585C25.5415 37.4377 25.6665 37.396 25.7915 37.3335C25.9165 37.2919 26.0415 37.2294 26.1665 37.146L26.479 36.896C26.854 36.5002 27.0831 35.9585 27.0831 35.4169C27.0831 34.8752 26.854 34.3335 26.479 33.9377L26.1665 33.6877C26.0415 33.6044 25.9165 33.5419 25.7915 33.5002C25.6665 33.4377 25.5415 33.396 25.3956 33.3752C25.1456 33.3127 24.854 33.3127 24.5831 33.3752C24.4581 33.396 24.3331 33.4377 24.2081 33.5002C24.0831 33.5419 23.9581 33.6044 23.8331 33.6877L23.5206 33.9377C23.1456 34.3335 22.9165 34.8752 22.9165 35.4169C22.9165 35.9585 23.1456 36.5002 23.5206 36.896L23.8331 37.146C23.9581 37.2294 24.0831 37.2919 24.2081 37.3335C24.3331 37.396 24.4581 37.4377 24.5831 37.4585Z" fill="#FEF2EA"/>
<path fill-rule="evenodd" clip-rule="evenodd" d="M25.0003 30.7292C24.1462 30.7292 23.4378 30.0208 23.4378 29.1667V18.75C23.4378 17.8958 24.1462 17.1875 25.0003 17.1875C25.8545 17.1875 26.5628 17.8958 26.5628 18.75V29.1667C26.5628 30.0208 25.8545 30.7292 25.0003 30.7292ZM24.5837 37.4585C24.7295 37.4794 24.8753 37.5002 25.0003 37.5002C25.1253 37.5002 25.2712 37.4794 25.3962 37.4585C25.542 37.4377 25.667 37.396 25.792 37.3335C25.917 37.2919 26.042 37.2294 26.167 37.146L26.4795 36.896C26.8545 36.5002 27.0837 35.9585 27.0837 35.4169C27.0837 34.8752 26.8545 34.3335 26.4795 33.9377L26.167 33.6877C26.042 33.6044 25.917 33.5419 25.792 33.5002C25.667 33.4377 25.542 33.396 25.3962 33.3752C25.1462 33.3127 24.8545 33.3127 24.5837 33.3752C24.4587 33.396 24.3337 33.4377 24.2087 33.5002C24.0837 33.5419 23.9587 33.6044 23.8337 33.6877L23.5212 33.9377C23.1462 34.3335 22.917 34.8752 22.917 35.4169C22.917 35.9585 23.1462 36.5002 23.5212 36.896L23.8337 37.146C23.9587 37.2294 24.0837 37.2919 24.2087 37.3335C24.3337 37.396 24.4587 37.4377 24.5837 37.4585Z" fill="#F07B2B"/>
</g>
<defs>
<clipPath id="clip0_9144_4886">
<rect width="50" height="50" fill="white"/>
</clipPath>
</defs>
</svg>
