<svg width="50" height="50" viewBox="0 0 50 50" fill="none" xmlns="http://www.w3.org/2000/svg">
<path fill-rule="evenodd" clip-rule="evenodd" d="M24.4788 46.875C12.1247 46.875 2.08301 36.8334 2.08301 24.4792C2.08301 12.125 12.1247 2.08337 24.4788 2.08337C36.833 2.08337 46.8747 12.125 46.8747 24.4792C46.8747 36.8334 36.833 46.875 24.4788 46.875ZM24.4788 28.125C23.6247 28.125 22.9163 27.4167 22.9163 26.5625V16.1459C22.9163 15.2917 23.6247 14.5834 24.4788 14.5834C25.333 14.5834 26.0413 15.2917 26.0413 16.1459V26.5625C26.0413 27.4167 25.333 28.125 24.4788 28.125ZM23.6872 34.7292C23.9372 34.8334 24.208 34.8959 24.4788 34.8959C24.7497 34.8959 25.0205 34.8334 25.2705 34.7292C25.5205 34.625 25.7497 34.4792 25.958 34.2917C26.1455 34.0834 26.2913 33.875 26.3955 33.6042C26.4997 33.3542 26.5622 33.0834 26.5622 32.8125C26.5622 32.5417 26.4997 32.2709 26.3955 32.0209C26.2913 31.7709 26.1455 31.5417 25.958 31.3334C25.7497 31.1459 25.5205 31 25.2705 30.8959C24.7705 30.6875 24.1872 30.6875 23.6872 30.8959C23.4372 31 23.208 31.1459 22.9997 31.3334C22.8122 31.5417 22.6663 31.7709 22.5622 32.0209C22.458 32.2709 22.3955 32.5417 22.3955 32.8125C22.3955 33.0834 22.458 33.3542 22.5622 33.6042C22.6663 33.875 22.8122 34.0834 22.9997 34.2917C23.208 34.4792 23.4372 34.625 23.6872 34.7292Z" fill="#FCE8EC"/>
<path fill-rule="evenodd" clip-rule="evenodd" d="M24.4788 28.125C23.6247 28.125 22.9163 27.4167 22.9163 26.5625V16.1459C22.9163 15.2917 23.6247 14.5834 24.4788 14.5834C25.333 14.5834 26.0413 15.2917 26.0413 16.1459V26.5625C26.0413 27.4167 25.333 28.125 24.4788 28.125ZM23.6872 34.7292C23.9372 34.8334 24.208 34.8959 24.4788 34.8959C24.7497 34.8959 25.0205 34.8334 25.2705 34.7292C25.5205 34.625 25.7497 34.4792 25.958 34.2917C26.1455 34.0834 26.2913 33.875 26.3955 33.6042C26.4997 33.3542 26.5622 33.0834 26.5622 32.8125C26.5622 32.5417 26.4997 32.2709 26.3955 32.0209C26.2913 31.7709 26.1455 31.5417 25.958 31.3334C25.7497 31.1459 25.5205 31 25.2705 30.8959C24.7705 30.6875 24.1872 30.6875 23.6872 30.8959C23.4372 31 23.208 31.1459 22.9997 31.3334C22.8122 31.5417 22.6663 31.7709 22.5622 32.0209C22.458 32.2709 22.3955 32.5417 22.3955 32.8125C22.3955 33.0834 22.458 33.3542 22.5622 33.6042C22.6663 33.875 22.8122 34.0834 22.9997 34.2917C23.208 34.4792 23.4372 34.625 23.6872 34.7292Z" fill="#DF1C41"/>
</svg>
