<svg width="558" height="614" viewBox="0 0 558 614" fill="none" xmlns="http://www.w3.org/2000/svg">
<path d="M423.341 109.59L423.95 107.423C425.7 101.207 427.706 88.9051 421.509 76.3465C419.061 71.3883 415.625 66.994 411.294 63.2841L409.963 62.1436L411.351 61.0727C417.286 56.4947 423.69 52.468 430.385 49.1034C437.081 45.742 444.131 43.0079 451.347 40.9802L452.07 40.7775L452.647 41.2559C455.792 43.8696 459.783 47.5763 462.785 53.0699C466.922 60.6482 470.99 73.8911 466.865 93.9456L466.735 94.5824L466.168 94.9024C461.758 97.3767 457.155 99.604 452.488 101.524C443.872 105.066 434.814 107.651 425.56 109.213L423.341 109.587V109.59ZM414.468 62.2893C418.478 65.9929 421.702 70.2921 424.067 75.0855C430.021 87.1531 428.895 98.9577 427.256 106.02C435.546 104.47 443.659 102.075 451.404 98.8911C455.763 97.0979 460.065 95.0323 464.199 92.7385C466.291 82.1632 467.223 67.1524 460.281 54.4386C457.687 49.6895 454.245 46.3503 451.398 43.933C444.61 45.8877 437.978 48.4824 431.669 51.6506C425.646 54.6762 419.866 58.2499 414.468 62.2893Z" fill="#A7F1E9"/>
<path d="M474.097 117.488L439.107 115.879L440.378 113.816C441.576 111.871 444.594 106.102 444.16 102.81C444.055 102.031 444.607 101.312 445.387 101.21C446.164 101.106 446.886 101.657 446.988 102.436C447.273 104.578 446.642 107.414 445.114 110.87C444.721 111.757 444.322 112.568 443.967 113.249L473.314 114.599C490.167 103.228 487.849 66.5885 487.206 59.3112H463.502C462.712 59.3112 462.075 58.6744 462.075 57.8856C462.075 57.0967 462.712 56.4599 463.502 56.4599H489.77L489.916 57.7208C489.97 58.1897 491.241 69.3385 490.052 82.2678C488.432 99.8859 483.195 111.656 474.48 117.247L474.097 117.491V117.488Z" fill="#A7F1E9"/>
<path d="M507.514 81.5771C507.352 81.5771 507.184 81.5486 507.023 81.4884C506.284 81.2191 505.904 80.3986 506.173 79.6604C510.069 69.0343 509.898 60.9302 509.071 56.0005C508.177 50.6748 506.341 47.8108 506.322 47.7823C505.894 47.1233 506.078 46.2426 506.734 45.8117C507.39 45.3808 508.272 45.5614 508.706 46.2172C509.042 46.7241 516.828 58.893 508.855 80.6425C508.643 81.2191 508.097 81.5771 507.514 81.5771Z" fill="#A7F1E9"/>
<path d="M452.523 477.458C451.36 477.458 450.291 477.275 449.35 476.857C423.734 470.764 405.391 453.444 404.7 434.65C404.459 428.07 406.507 421.163 410.625 414.672L412.153 412.264L413.164 414.928C415.764 421.775 419.464 428.026 424.165 433.51C425.078 434.574 426.007 435.582 426.949 436.545C438.926 428.59 448.215 417.339 454.561 403.089C454.707 402.763 454.913 402.237 455.154 401.628C457.361 396.052 459.802 390.654 463.219 391.192C476.794 393.334 490.458 395.378 503.288 397.288C505.872 397.671 507.742 400.013 507.552 402.614C507.149 408.063 505.812 418.999 501.354 431.038C495.813 445.992 487.313 457.822 476.087 466.199C472.048 469.212 460.277 477.458 452.523 477.458ZM450.776 474.347C454.688 475.656 464.167 471.531 474.379 463.911C499.709 445.013 503.995 412.055 504.705 402.405C504.788 401.283 503.979 400.276 502.866 400.111C490.03 398.2 476.36 396.157 462.772 394.012C462.753 394.012 461.97 394.085 460.522 396.648C459.431 398.574 458.454 401.045 457.808 402.68C457.545 403.346 457.339 403.868 457.167 404.252C450.684 418.803 441.227 430.345 429.038 438.582C437.078 446.043 445.742 450.098 452.066 452.256L453.553 452.763L452.907 454.191C448.516 463.905 447.286 471.597 449.774 473.79C449.936 473.932 450.12 474.056 450.323 474.16H450.332C450.497 474.198 450.646 474.262 450.779 474.347H450.776ZM411.589 418.651C408.713 423.939 407.353 429.277 407.55 434.546C408.159 451.112 423.788 466.522 446.097 473.048C445.371 470.694 445.533 467.438 446.585 463.313C447.267 460.642 448.351 457.534 449.676 454.432C441.804 451.543 431.073 445.957 421.994 435.366C417.704 430.364 414.211 424.753 411.589 418.648V418.651Z" fill="#A7F1E9"/>
<path d="M505.786 418.977C505.124 418.977 504.461 418.965 503.798 418.939C503.012 418.908 502.397 418.245 502.429 417.46C502.461 416.674 503.12 416.05 503.909 416.091C508.325 416.262 512.738 415.825 517.028 414.789C520.895 413.854 524.633 412.441 528.152 410.585C531.056 396.974 529.693 385.053 524.097 375.133C520.487 368.736 515.154 363.446 508.24 359.403C502.587 360.547 497.03 362.258 491.717 364.494C486.926 366.509 482.298 368.965 477.942 371.806C482.548 379.467 481.981 394.696 481.952 395.378C481.921 396.163 481.258 396.765 480.469 396.743C479.682 396.711 479.071 396.046 479.102 395.26C479.109 395.092 479.724 378.558 474.826 372.291L473.884 371.087L475.149 370.232C480.006 366.953 485.205 364.136 490.607 361.865C496.263 359.485 502.185 357.68 508.211 356.501L508.731 356.4L509.191 356.663C516.784 360.997 522.633 366.741 526.577 373.733C532.616 384.438 534.033 397.256 530.793 411.839L530.653 412.47L530.086 412.78C526.183 414.909 522.015 416.519 517.694 417.561C513.791 418.502 509.793 418.977 505.78 418.977H505.786Z" fill="#A7F1E9"/>
<path d="M474.474 487.067C473.751 487.067 473.13 486.519 473.057 485.784C472.977 485.002 473.548 484.302 474.334 484.222C487.776 482.87 497.157 477.642 502.207 468.683C505.957 462.033 505.802 455.766 505.802 455.703C505.777 454.917 506.395 454.258 507.181 454.233C507.967 454.217 508.627 454.825 508.652 455.614C508.662 455.902 508.83 462.749 504.692 470.083C497.8 482.309 484.536 486.063 474.62 487.061C474.572 487.067 474.521 487.067 474.474 487.067Z" fill="#A7F1E9"/>
<path d="M499.192 495.514C498.479 495.514 497.864 494.982 497.778 494.256C497.686 493.473 498.244 492.764 499.027 492.672C506.921 491.734 509.232 485.246 509.254 485.179C509.511 484.435 510.323 484.039 511.068 484.292C511.813 484.549 512.209 485.36 511.956 486.104C511.841 486.44 509.02 494.354 499.367 495.504C499.309 495.511 499.252 495.514 499.195 495.514H499.192Z" fill="#A7F1E9"/>
<path d="M178.098 42.7671L179.118 40.7933C182.736 33.7885 183.433 28.3297 181.192 24.5723C177.999 19.2213 169.722 19.0058 169.639 19.0058L167.056 18.9583L190.183 0L190.791 0.554429C196.675 5.93081 203.631 14.5862 203.371 25.282C203.212 31.7387 200.502 35.8256 200.388 35.9967L200.197 36.2818L178.104 42.7671H178.098ZM172.03 17.3394C172.825 17.4661 173.77 17.6562 174.778 17.9508C178.478 19.028 181.258 20.9796 182.821 23.5902C185.202 27.5725 184.847 32.9869 181.762 39.7098L198.977 34.6566C199.547 33.6744 201.37 30.1546 201.469 25.1267C201.618 17.4629 197.693 9.65974 190.11 2.51552L172.03 17.3362V17.3394Z" fill="#A7F1E9"/>
<path d="M81.1201 170.124L80.7017 168.553C80.6668 168.426 77.3507 155.795 76.6977 140.141C76.089 125.589 77.7185 105.348 88.9411 91.56L89.4927 90.882L133.264 100.212L132.281 101.91C132.262 101.945 130.04 105.902 129.187 113.357C128.395 120.254 128.645 131.64 134.326 146.715L134.814 148.007L81.1233 170.124H81.1201ZM90.615 94.0343C84.8705 101.435 78.5237 115.296 79.5445 139.96C80.0486 152.119 82.1885 162.413 83.073 166.234L131.172 146.42C122.39 122.177 126.914 107.109 128.978 102.211L90.6118 94.0343H90.615Z" fill="#A7F1E9"/>
<path d="M69.0383 148.73L68.6611 147.408C64.8409 133.994 61.4234 114.25 66.8223 96.3883C70.094 85.5595 75.0396 80.5823 75.2488 80.3732L75.6071 80.0184L119.068 75.5322V96.9173C119.068 97.7062 118.431 98.343 117.641 98.343C116.852 98.343 116.215 97.7062 116.215 96.9173V78.6909L76.9386 82.7461C75.829 84.0134 72.0754 88.753 69.4917 97.4211C66.7241 106.71 64.787 122.503 71.0388 145.305L77.6741 143.689C78.4381 143.502 79.2116 143.971 79.3987 144.738C79.5857 145.504 79.1165 146.274 78.3493 146.461L69.0383 148.726V148.73Z" fill="#A7F1E9"/>
<path d="M43.2199 115.632C42.6175 115.632 42.0564 115.248 41.863 114.643C38.9749 105.696 36.3531 92.447 40.2842 80.1324C42.6746 72.6397 46.3552 69.0533 46.5106 68.9044C47.0781 68.3595 47.9816 68.3785 48.5269 68.9456C49.0721 69.5127 49.0531 70.4125 48.4888 70.9574C48.4286 71.0144 45.0871 74.3347 42.9441 81.1874C40.95 87.5617 39.6153 98.3905 44.5799 113.766C44.8208 114.516 44.4119 115.318 43.6605 115.559C43.5147 115.606 43.3657 115.629 43.223 115.629L43.2199 115.632Z" fill="#A7F1E9"/>
<path d="M533.139 286.982L532.359 286.811C520.084 284.127 509.09 274.956 500.571 260.284C494.196 249.306 491.463 239.273 491.352 238.851L491.152 238.113L491.66 237.54C505.818 221.534 520.17 222.722 520.775 222.779L521.675 222.865L521.98 223.714C528.983 243.182 556.212 259.999 556.485 260.167L557.997 261.092L533.139 286.982ZM494.323 238.845C495.074 241.351 497.842 249.911 503.076 258.912C508.624 268.448 518.147 280.424 532.197 283.849L553.511 261.652C551.035 260.034 545.782 256.431 539.984 251.441C529.728 242.612 522.89 233.925 519.64 225.599C518.331 225.611 515.623 225.795 512.139 226.885C507.682 228.282 501.018 231.492 494.319 238.848L494.323 238.845Z" fill="#A7F1E9"/>
<path d="M493.768 287.625C493.524 287.625 493.276 287.562 493.048 287.429C480.307 279.983 474.077 270.865 471.094 264.526C467.829 257.594 467.62 252.449 467.613 252.233C467.588 251.448 468.203 250.786 468.989 250.76C469.775 250.735 470.435 251.35 470.463 252.132C470.463 252.18 470.682 257.021 473.741 263.449C476.563 269.38 482.45 277.927 494.491 284.964C495.172 285.36 495.4 286.234 495.001 286.915C494.735 287.368 494.259 287.622 493.768 287.622V287.625Z" fill="#A7F1E9"/>
<path d="M59.2169 345.165L58.4782 344.427C53.4629 339.406 37.2915 320.992 39.6692 294.871C40.9436 280.883 47.0654 270.295 51.9792 263.88L52.5277 263.164L92.9292 271.765L91.3568 273.59C81.6558 284.831 78.8819 296.113 83.111 307.125C87.0516 317.39 95.8522 323.736 95.9409 323.799L97.8431 325.152L95.7729 326.226L59.2201 345.165H59.2169ZM53.7038 266.329C49.1229 272.503 43.6764 282.325 42.5097 295.127C40.3476 318.87 54.3157 335.974 59.7685 341.668L92.4981 324.708C89.5275 322.187 83.6182 316.411 80.4448 308.148C78.3746 302.763 77.8357 297.221 78.8438 291.68C79.9439 285.616 82.9113 279.53 87.6698 273.565L53.7007 266.335L53.7038 266.329Z" fill="#A7F1E9"/>
<path d="M104.057 351.277C98.458 351.277 87.2195 349.461 75.3882 337.153C74.8429 336.586 74.8619 335.683 75.4294 335.138C75.9969 334.593 76.9004 334.612 77.4457 335.179C81.8491 339.76 89.0044 345.653 98.0776 347.703C102.519 348.707 105.734 348.391 106.767 348.238C116.728 338.981 126.641 320.387 129.637 314.513C119.023 313.107 112.458 307.809 108.758 303.469C106.006 300.241 104.424 297.117 103.635 295.251L82.5498 308.833C81.8872 309.26 81.0059 309.067 80.5779 308.408C80.1499 307.746 80.3433 306.865 81.0027 306.438L105.169 290.869L105.712 292.691C105.724 292.732 107.091 297.158 111.006 301.714C116.218 307.775 123.262 311.199 131.945 311.893L134.022 312.058L133.118 313.934C133.087 313.997 130.015 320.34 125.472 327.972C119.344 338.265 113.596 345.888 108.384 350.63L108.102 350.887L107.731 350.969C107.55 351.007 106.228 351.283 104.057 351.283V351.277Z" fill="#A7F1E9"/>
<path d="M55.2859 481.282L54.2175 480.924C44.3168 477.604 36.2993 472.282 30.3836 465.099C25.6536 459.355 22.2647 452.43 20.3086 444.519C16.9957 431.111 18.9327 419.649 19.0183 419.164L19.1642 418.334L51.8969 407.144L52.3027 408.601C58.7573 431.818 76.9227 443.489 77.1066 443.606L78.3081 444.364L77.56 445.568L55.2922 481.282H55.2859ZM21.7099 420.476C21.3421 423.308 20.4037 433.079 23.1016 443.926C24.9625 451.403 28.1645 457.93 32.6218 463.328C37.9764 469.814 45.1855 474.693 54.059 477.851L74.4056 445.216C72.6397 443.955 69.0923 441.199 65.0914 436.89C60.1458 431.558 53.6025 422.779 49.9662 410.813L21.7035 420.476H21.7099Z" fill="#A7F1E9"/>
<path d="M53.4724 496.512L53.0444 496.505C41.9803 496.318 32.4917 493.797 24.8483 489.016C18.7044 485.17 13.7461 479.876 10.113 473.273C3.95642 462.093 3.75353 451.172 3.75036 450.713L3.74084 450.054L16.8117 438.658C17.4046 438.141 18.3081 438.202 18.8248 438.794C19.3416 439.387 19.2814 440.289 18.6885 440.806L6.62893 451.318C6.77476 453.776 7.64024 462.92 12.6651 471.993C16.0667 478.14 20.6953 483.063 26.4207 486.633C33.503 491.05 42.3226 493.407 52.6354 493.645C54.6327 492.216 65.1325 484.067 74.3801 464.874L68.3725 462.73C67.6307 462.463 67.2439 461.649 67.5102 460.908C67.7765 460.167 68.5912 459.78 69.3331 460.046L78.2985 463.246L77.6391 464.665C66.8857 487.771 54.3632 495.945 53.837 496.284L53.4755 496.515L53.4724 496.512Z" fill="#A7F1E9"/>
<path d="M31.1127 525.633C23.26 525.633 14.0283 523.999 6.98087 517.884C1.64536 513.252 0.120475 508.266 0.0602406 508.053C-0.161676 507.299 0.269476 506.504 1.02399 506.282C1.77851 506.06 2.57107 506.488 2.79616 507.242C2.82152 507.328 4.2291 511.776 8.98446 515.844C15.3345 521.274 24.7976 523.59 36.3531 522.541C37.133 522.468 37.8305 523.048 37.9034 523.831C37.9763 524.613 37.3961 525.307 36.6131 525.38C34.9012 525.535 33.0529 525.633 31.1191 525.633H31.1127Z" fill="#A7F1E9"/>
<g clip-path="url(#clip0_4_10736)">
<path d="M238.283 248.32L312.63 241.145C342.72 291.574 370.45 339.038 388.15 407.86C391.852 436.76 392.28 508.719 356.29 539.57C323.84 539.57 303.418 533.05 290.21 525.533C290.879 516.114 285.938 511.29 287.85 493.294C291.937 454.812 297.432 438.779 297.88 416.759C298.145 403.707 297.88 374.635 289.62 353.87C287.26 362.176 281.95 488.547 213.51 514.652C204.02 519.142 194.63 529.876 177.52 527.704C169.26 522.757 166.331 517.631 159.82 506.346C154.505 497.133 154.643 491.569 151.56 483.801C162.77 464.222 160.804 465.159 174.57 448.797C174.57 448.797 216.337 402.52 219.41 368.702C221.689 343.629 220.664 290.464 215.28 275.556C233.149 273.905 240.64 266.71 241.341 257.644C241.483 255.819 241.268 252.547 238.286 248.32H238.283Z" fill="#40E0D0"/>
<path d="M349.797 541.782V543.835C350.08 543.835 350.276 543.889 350.418 543.824C350.75 543.676 351.039 543.446 351.371 543.304C352.874 542.647 353.375 542.948 353.468 544.535C353.517 545.334 353.56 546.139 353.615 547.124C354.383 546.982 354.971 546.867 355.564 546.768C356.098 546.681 356.637 546.571 357.177 546.56C357.781 546.544 358.222 546.91 358.418 547.452C358.609 547.989 358.544 548.563 358.048 548.935C357.198 549.581 356.316 550.189 355.423 550.835C355.81 551.688 356.316 552.072 357.16 551.732C358.168 551.322 359.17 550.889 360.172 550.473C360.591 550.298 361.011 550.118 361.447 549.997C362.089 549.822 362.677 550.123 363.031 550.747C363.38 551.36 363.287 551.973 362.705 552.449C361.942 553.068 361.147 553.648 360.423 554.201C360.521 555.011 361.098 555.164 361.555 555.383C362.95 556.045 364.366 556.658 365.771 557.298C367.764 558.207 369.649 559.285 371.342 560.692C374.904 563.664 376.184 567.456 375.182 571.944C374.082 576.876 371.729 581.216 367.988 584.576C363.767 588.358 358.674 590.099 352.983 590C350.935 589.962 349.04 589.327 347.237 588.457C337.254 583.635 326.83 579.848 316.71 575.349C313.726 574.019 310.714 572.743 307.735 571.397C304.827 570.084 302.043 568.557 299.734 566.291C296.799 563.412 295.312 559.936 295.197 555.799C295.072 551.377 295.856 547.075 296.657 542.778C297.371 538.942 298.226 535.127 299.048 531.142C298.525 530.984 298.04 530.814 297.545 530.699C295.867 530.311 294.152 530.042 292.512 529.544C289.392 528.592 287.447 526.436 286.69 523.25C286.396 522.013 286.162 520.749 286.02 519.485C285.242 512.654 285.661 505.824 286.26 499.01C287.295 487.183 289.615 475.552 291.723 463.895C293.999 451.323 295.775 438.686 296.298 425.906C296.831 412.957 296.679 400.018 295.677 387.096C295.121 379.91 294.299 372.757 292.567 365.74C292.137 363.994 291.766 362.215 290.688 360.366C290.121 361.477 289.953 362.412 289.806 363.354C288.678 370.556 287.573 377.765 286.418 384.962C284.877 394.589 283.384 404.232 281.701 413.832C279.904 424.072 277.606 434.203 274.561 444.148C270.82 456.364 265.401 467.72 257.678 477.944C252.782 484.424 247.384 490.417 241.606 496.109C237.183 500.466 232.363 504.319 227.614 508.27C225.593 509.951 223.36 511.379 221.171 512.846C214.445 517.356 207.506 521.477 199.919 524.411C194.566 526.485 189.092 528.089 183.401 528.855C182.235 529.013 181.053 529.063 179.877 529.134C176.016 529.369 173.02 527.76 170.689 524.761C170.03 523.913 169.382 523.064 168.696 522.172C167.193 523.294 166.397 524.657 165.858 526.447C166.49 526.693 167.051 526.906 167.623 527.125C168.478 528.45 166.996 529.512 167.231 530.913C168.026 531.569 169.142 531.624 170.144 531.958C170.738 532.155 171.337 532.368 171.887 532.664C172.062 532.757 172.17 533.151 172.143 533.386C172.116 533.605 171.898 533.912 171.702 533.983C170.635 534.344 169.556 534.18 168.489 533.923C167.808 533.759 167.144 533.293 166.305 533.824C166.474 534.481 166.653 535.165 166.822 535.817C167.116 535.997 167.329 536.189 167.574 536.265C168.788 536.637 170.014 536.977 171.228 537.338C171.664 537.464 172.105 537.59 172.508 537.781C172.944 537.989 173.282 538.367 173.058 538.86C172.933 539.133 172.546 539.451 172.274 539.456C171.468 539.467 170.656 539.347 169.856 539.248C169.42 539.193 168.99 539.078 168.483 538.969C168.124 539.757 168.603 540.261 168.881 540.764C170.242 543.249 171.326 545.849 172.198 548.547C173.26 551.825 173.483 555.137 172.9 558.535C172.399 561.469 171 563.883 168.701 565.667C164.426 568.983 158.331 570.461 152.743 566.603C148.174 563.45 143.822 560.013 140.304 555.635C138.992 554.004 137.635 552.405 136.372 550.736C133.235 546.599 129.869 542.658 126.47 538.734C124.749 536.747 123.186 534.596 121.738 532.401C119.564 529.106 118.306 525.363 117.217 521.603C116.297 518.434 116.781 515.353 118.154 512.299C120.332 507.449 123.932 503.952 128.159 501.008C131.514 498.671 134.972 496.498 138.605 494.599C141.018 493.34 143.381 491.977 145.729 490.592C147.662 489.454 147.64 489.41 149.862 489.328C150.358 488.332 150.881 487.303 150.854 486.072C150.756 481.846 152.025 477.971 154.034 474.337C155.439 471.787 156.943 469.28 158.566 466.866C163.5 459.533 168.903 452.543 174.414 445.647C180.215 438.395 186.091 431.209 191.854 423.925C195.753 418.999 199.435 413.909 202.773 408.573C209.026 398.584 213.214 387.769 215.725 376.265C217.342 368.854 218.252 361.351 218.584 353.776C218.731 350.405 218.644 347.006 219.096 343.678C219.543 340.405 219.641 337.149 219.624 333.876C219.592 327.948 219.586 322.021 219.308 316.105C219.069 311.009 218.47 305.93 218.007 300.846C217.533 295.663 216.558 290.556 215.61 285.45C215.245 283.48 214.946 281.498 214.597 279.522C214.505 278.997 214.352 278.483 214.189 277.793C213.514 277.793 212.898 277.771 212.283 277.793C203.574 278.149 195.268 276.381 187.518 272.484C181.277 269.343 175.248 265.769 170.085 260.93C168.957 259.874 167.764 258.883 166.621 257.849C162.422 254.034 158.822 249.683 155.668 244.993C149.971 236.52 145.761 227.386 144.171 217.184C142.526 206.659 144.356 196.879 150.227 187.908C153.343 183.147 157.144 178.987 161.212 175.079C167.122 169.404 173.39 164.144 179.676 158.901C191.352 149.159 203.661 140.287 216.204 131.727C223.785 126.555 231.339 121.334 238.833 116.041C242.619 113.37 246.273 110.508 249.939 107.667C251.251 106.649 252.482 105.593 254.399 105.878C254.617 105.161 254.916 104.586 254.944 103.995C255.074 101.269 255.134 98.5437 255.216 95.8783C254.165 95.0355 253.234 94.3458 252.063 93.8751C251.458 94.7618 250.93 95.5992 250.342 96.3928C248.55 98.8338 246.175 100.065 243.109 100.027C241.072 100.005 239.111 99.611 237.292 98.7845C233.453 97.0441 229.455 95.933 225.31 95.2817C224.504 95.1559 223.714 94.9369 222.925 94.7235C215.305 92.6711 210.97 87.5209 209.216 79.979C208.192 75.5731 208.786 71.2822 210.344 67.0898C210.883 65.6395 211.417 64.1891 211.912 62.7223C212.773 60.1992 213.982 57.8896 215.714 55.8317C217.756 53.4016 219.82 50.9935 221.383 48.1693C222.74 45.7229 224.951 44.0372 227.478 42.8988C229.292 42.0833 231.198 41.4539 233.104 40.8682C237.2 39.6149 241.164 38.0496 244.852 35.8604C248.833 33.496 252.782 31.0824 256.725 28.6578C263.358 24.5748 270.537 22.9603 278.123 24.7281C285.481 26.4412 292.049 29.8619 297.398 35.428C300.366 38.5148 303.236 41.6618 305.899 45.0223C308.563 48.3828 311.624 51.3711 315.153 53.8449C316.716 54.9396 318.279 56.0397 319.777 57.2273C321.057 58.2398 322.331 59.2907 323.437 60.4893C326.394 63.6965 327.189 67.4565 325.986 71.6599C325.376 73.7834 324.373 75.7209 323.213 77.5818C321.961 79.5904 320.697 81.5935 319.374 83.5529C316.928 87.1761 316.313 91.051 317.413 95.2872C318.099 97.9362 318.535 100.629 318.268 103.404C317.723 109.063 313.394 113.359 307.773 113.825C303.106 114.208 299.015 112.894 295.372 109.95C292.229 107.41 289.708 104.307 287.175 101.204C286.603 100.503 286.042 99.7861 285.427 99.0144C283.689 99.2224 282.039 99.6164 280.373 100.169C279.773 102.036 279.763 103.94 279.719 105.845C279.708 106.392 279.833 106.945 279.763 107.481C279.583 108.833 279.964 109.999 280.852 111.203C285.307 112.079 289.615 113.753 293.711 115.937C300.873 119.757 307.49 124.36 313.388 129.998C317.146 133.588 320.719 137.332 324.014 141.349C326.154 143.954 328.137 146.674 329.798 149.624C330.108 150.171 330.462 150.697 330.773 151.195C331.606 151.102 331.563 150.461 331.731 150.007C332.173 148.814 332.483 147.555 333.033 146.411C333.779 144.862 334.607 143.33 335.576 141.907C337.118 139.641 339.476 138.596 342.09 138.519C347.079 138.377 352.073 138.35 357.062 138.503C370.313 138.919 383.559 138.793 396.809 138.787C407.615 138.782 418.404 139.181 429.166 140.101C434.046 140.517 438.904 141.196 443.751 141.891C445.717 142.17 447.635 142.788 449.568 143.275C450.712 143.56 451.839 143.894 452.977 144.2C454.415 144.594 455.374 145.454 455.63 146.981C455.75 147.698 455.913 148.42 455.94 149.142C456.114 153.335 456.027 157.522 455.69 161.709C454.791 172.901 453.135 183.99 451.066 195.012C449.198 204.963 446.823 214.792 443.343 224.315C442.156 227.561 440.734 230.724 439.291 233.866C438.534 235.513 437.542 237.062 436.568 238.595C436.05 239.416 435.56 240.28 434.482 240.642C433.044 241.123 431.753 241.709 430.086 241.43C420.223 239.788 410.273 239.065 400.273 238.978C399.554 238.972 398.835 238.978 398.04 238.978C397.458 239.613 396.886 240.198 396.368 240.822C393.335 244.462 389.882 247.702 386.679 251.177C382.965 255.211 378.858 258.796 374.681 262.288C369.818 266.349 364.268 269.184 358.075 270.782C353.587 271.942 349.105 272.205 344.596 271.362C341.126 270.716 337.684 269.846 334.449 268.335C333.719 267.996 332.968 267.712 332.232 267.405C331.639 268.073 332.227 268.505 332.439 268.899C337.891 279.003 342.934 289.308 347.803 299.702C354.835 314.714 361.811 329.755 368.75 344.811C373.744 355.648 378.657 366.523 382.763 377.748C386.723 388.574 389.484 399.69 390.71 411.178C391.271 416.437 391.614 421.708 391.826 426.995C392.06 432.829 392.153 438.658 392.006 444.492C391.723 455.532 390.813 466.511 388.705 477.375C386.004 491.293 382.001 504.801 376.391 517.816C373.603 524.279 370.346 530.491 365.618 535.784C364.415 537.13 363.031 538.351 361.566 539.396C359.306 541.016 356.725 541.859 353.903 541.82C352.64 541.799 351.371 541.82 349.813 541.82L349.797 541.782ZM279.643 220.588C280.525 221.535 281.674 221.601 282.644 222.028C284.888 223.013 287.175 223.888 289.375 224.956C290.328 225.421 291.205 226.154 291.941 226.932C292.937 227.988 292.932 229.586 291.957 230.675C291.363 231.337 290.617 231.939 289.827 232.323C288.444 232.99 287.006 233.598 285.525 233.997C282.987 234.681 280.411 235.223 277.835 235.754C272.236 236.898 266.621 237.971 261.022 239.12C253.963 240.57 247.384 243.488 240.653 245.945C240.402 246.038 240.113 246.137 239.95 246.328C239.792 246.509 239.683 246.832 239.727 247.056C239.77 247.28 240.01 247.598 240.206 247.631C240.729 247.724 241.284 247.74 241.818 247.686C243.441 247.521 245.064 247.324 246.687 247.122C259.47 245.54 272.247 243.893 285.04 242.388C292.61 241.501 300.203 240.839 307.784 240.067C310.022 239.837 312.261 239.585 314.608 239.334C316.318 230.626 318.001 222.06 319.684 213.506C319.401 213.068 319.085 212.723 318.922 212.318C316.999 207.595 315.006 202.899 313.219 198.127C309.897 189.227 307.626 180.027 305.671 170.745C304.995 167.532 304.331 164.319 303.634 161.112C303.449 160.258 303.514 159.492 304.064 158.792C304.587 158.124 305.181 157.637 306.221 157.828C306.406 158.321 306.657 158.802 306.771 159.311C307.31 161.714 307.806 164.122 308.334 166.525C308.405 166.842 308.378 167.286 309.069 167.242C309.521 166.47 310.017 165.616 310.513 164.768C311.471 163.115 312.402 161.44 313.394 159.81C313.867 159.032 314.439 158.315 315.409 158.085C315.942 157.96 316.602 158.518 316.416 159.027C316.204 159.618 315.915 160.187 315.61 160.74C313.846 163.925 312.081 167.116 310.289 170.285C309.723 171.292 309.581 172.272 309.897 173.416C310.932 177.192 311.836 181.007 312.882 184.783C314.755 191.553 317.092 198.165 319.853 204.623C320.06 205.105 320.354 205.543 320.773 206.314C321.057 205.51 321.296 205.039 321.383 204.541C323.066 195.029 324.717 185.506 326.399 175.993C327.385 170.427 328.387 164.867 329.444 159.317C329.694 157.992 329.624 156.827 328.91 155.661C327.728 153.718 326.672 151.693 325.468 149.761C322.266 144.633 318.274 140.145 314.02 135.892C310.807 132.679 307.463 129.593 303.841 126.829C300.001 123.901 295.878 121.405 291.641 119.123C289 117.7 286.244 116.523 283.352 115.691C282.867 115.554 282.344 115.549 281.767 115.472C281.767 116.627 281.74 117.617 281.767 118.603C281.876 122.193 280.906 125.395 278.755 128.317C276.811 130.961 271.735 132.876 267.922 131.224C266.136 130.446 264.638 129.33 263.162 128.104C257.71 123.578 254.377 117.979 254.339 110.683C254.339 110.081 254.23 109.479 254.176 108.86C253.364 108.713 252.983 109.14 252.575 109.457C250.99 110.678 249.459 111.969 247.831 113.13C239.313 119.188 230.784 125.225 222.239 131.245C217.778 134.387 213.263 137.446 208.808 140.588C196.243 149.46 184.294 159.109 172.726 169.245C167.661 173.684 162.71 178.243 158.277 183.327C155.156 186.907 152.433 190.776 150.483 195.144C147.107 202.713 146.453 210.6 147.907 218.7C148.762 223.473 150.265 228.026 152.123 232.52C153.914 236.843 156.142 240.904 158.68 244.774C163.157 251.599 168.739 257.455 175.101 262.534C180.035 266.475 185.541 269.507 191.369 271.844C198.296 274.619 205.524 275.598 212.996 274.744C219.417 274.011 225.386 272.074 230.887 268.675C232.042 267.958 233.164 267.175 234.226 266.321C237.984 263.295 239.335 259.338 238.387 254.636C237.973 252.589 237.488 250.521 236.715 248.589C233.649 240.888 230.473 233.231 227.298 225.574C226.149 222.799 224.902 220.063 223.644 217.332C223.154 216.27 222.68 215.159 221.514 214.415C219.684 214.398 217.827 214.847 215.964 215.219C207.512 216.916 199.07 218.684 190.486 219.614C187.061 219.986 183.635 220.419 180.177 220.309C178.613 220.26 177.121 220.014 175.705 219.297C173.227 218.038 172.672 216.544 173.51 213.895C173.919 212.614 174.621 211.399 175.34 210.25C177.524 206.747 180.253 203.682 183.341 200.978C186.554 198.165 189.849 195.434 193.21 192.796C200.791 186.847 208.476 181.029 215.512 174.406C221.226 169.037 226.541 163.312 231.165 156.964C231.595 156.372 231.966 155.705 232.516 155.256C233.049 154.824 233.752 154.495 234.427 154.369C235.13 154.243 235.86 154.468 236.35 155.382C236.099 155.842 235.843 156.411 235.5 156.914C232.57 161.211 229.232 165.184 225.762 169.037C224.079 170.903 224.177 170.466 224.433 173.142C224.624 175.14 224.82 177.137 224.913 179.135C225.136 184.066 224.804 188.981 224.346 193.88C223.823 199.511 223.154 205.121 221.835 210.633C221.732 211.054 221.743 211.503 221.705 211.919C222.707 212.45 223.649 212.822 224.433 213.402C225.196 213.971 225.795 214.754 226.519 215.493C226.988 215.088 227.342 214.814 227.663 214.502C229.76 212.483 231.862 210.468 233.937 208.427C238.414 204.032 242.842 199.577 247.373 195.237C248.942 193.737 250.712 192.435 252.466 191.148C253.762 190.196 255.276 189.933 256.877 190.284C258.544 190.65 259.328 191.362 259.361 193.042C259.393 194.58 259.181 196.123 259.001 197.656C258.887 198.625 258.625 199.577 258.386 200.765C258.974 200.573 259.333 200.518 259.622 200.354C263.168 198.285 266.937 196.72 270.792 195.352C274.496 194.038 278.303 193.228 282.235 193.157C284.065 193.124 285.862 193.414 287.534 194.202C288.961 194.876 289.457 196.151 288.858 197.607C288.553 198.351 288.128 199.101 287.578 199.67C286.701 200.579 285.71 201.4 284.691 202.149C283.373 203.118 281.974 203.972 280.629 204.897C280.383 205.066 280.215 205.357 279.779 205.866C280.661 205.92 281.179 205.964 281.701 205.986C284.784 206.112 287.861 206.249 290.862 207.102C293.041 207.721 294.941 208.613 295.688 210.89C297.479 211.18 299.135 211.448 300.927 211.738C301.128 210.605 301.276 209.626 301.477 208.657C301.777 207.217 302.599 206.621 303.977 206.791C304.957 206.916 305.339 207.617 305.181 209.1C305.039 210.441 304.859 211.782 304.696 213.128C305.268 213.397 305.66 213.615 306.074 213.774C307.435 214.283 308.819 214.727 310.159 215.285C310.513 215.433 310.79 215.865 310.992 216.226C311.084 216.396 310.921 216.708 310.883 216.927C308.568 217.83 306.662 216.013 304.385 216.04C304.233 216.598 304.048 217.096 303.966 217.605C303.721 219.138 303.552 220.681 303.263 222.203C303.171 222.695 302.899 223.303 302.512 223.571C301.303 224.403 299.571 223.434 299.582 221.962C299.587 221.146 299.734 220.331 299.87 219.521C300.148 217.917 300.344 216.308 300.513 214.677C298.863 213.561 297.049 213.331 295.285 212.636C292.937 215.641 289.604 216.861 286.287 218.087C284.588 218.716 282.851 219.253 281.141 219.86C280.645 220.035 280.182 220.32 279.643 220.583V220.588ZM452.068 148.442C450.565 147.254 449.023 146.975 447.542 146.592C443.316 145.497 439.002 144.873 434.672 144.403C423.84 143.232 412.974 142.668 402.081 142.564C390.557 142.454 379.033 142.438 367.508 142.356C363.516 142.328 359.529 142.17 355.537 142.137C351.093 142.104 346.649 142.197 342.21 142.126C340.554 142.099 339.4 142.75 338.605 144.096C337.771 145.497 336.84 146.893 336.295 148.409C335.342 151.058 334.52 153.773 333.877 156.515C331.824 165.304 330.615 174.253 329.041 183.136C327.336 192.736 325.653 202.335 323.856 211.919C322.309 220.161 320.615 228.371 318.998 236.597C318.862 237.281 318.829 237.987 318.731 238.841C319.722 238.841 320.523 238.896 321.313 238.83C326.557 238.403 331.791 237.9 337.042 237.511C350.521 236.515 364.012 235.705 377.519 235.327C387.404 235.048 397.294 234.977 407.179 235.48C415.066 235.88 422.935 236.438 430.729 237.774C431.41 237.889 432.129 237.79 432.728 237.79C435.054 234.55 436.573 231.14 438 227.687C442.008 217.961 444.612 207.825 446.741 197.546C448.386 189.6 449.693 181.598 450.712 173.547C451.61 166.399 452.416 159.246 452.253 152.021C452.226 150.845 452.139 149.662 452.079 148.436L452.068 148.442ZM291.042 524.307C291.576 525.138 291.853 525.839 292.354 526.288C293.019 526.884 293.809 527.41 294.631 527.727C295.639 528.11 296.728 528.346 297.801 528.472C301.227 528.866 304.663 529.15 308.089 529.528C313.492 530.13 318.916 530.557 324.221 531.876C328.627 532.971 333.017 534.109 337.298 535.625C340.892 536.9 344.508 538.044 348.206 539.013C353.19 540.315 357.318 539.128 360.896 535.543C363.026 533.408 364.84 531.022 366.468 528.488C370.591 522.095 373.483 515.101 376.119 508.013C379.866 497.921 382.747 487.571 384.773 476.981C386.336 468.815 387.202 460.578 387.763 452.297C387.894 450.382 387.425 448.783 386.38 447.169C382.344 440.973 377.813 435.166 373.074 429.518C366.582 421.785 359.829 414.259 354.05 405.94C353.495 405.141 352.787 404.714 351.85 404.49C349.557 403.953 347.253 403.428 344.999 402.738C338.272 400.675 331.998 397.637 326.127 393.74C322.031 391.026 318.067 388.136 314.33 384.94C313.568 384.288 312.876 383.976 311.88 384.403C308.367 385.892 304.832 387.321 301.319 388.793C300.834 388.995 300.404 389.34 299.898 389.652C300.023 392.613 300.159 395.519 300.273 398.425C300.388 401.337 300.519 404.254 300.568 407.171C300.617 410.089 300.611 413.006 300.568 415.928C300.529 418.753 300.442 421.577 300.317 424.401C300.186 427.312 300.007 430.224 299.794 433.136C299.582 436.042 299.342 438.954 299.037 441.849C298.727 444.75 298.313 447.639 297.953 450.535C297.594 453.381 296.859 456.188 296.766 459.264C297.697 459.062 298.405 458.958 299.081 458.75C301.689 457.967 304.282 457.135 306.891 456.358C315.588 453.764 324.292 451.181 333.196 449.374C338.006 448.395 342.869 447.787 347.798 448.023C350.358 448.148 352.879 448.504 355.2 449.637C359.121 451.542 361.338 454.607 361.381 459.122C361.408 461.64 360.842 464.004 359.943 466.314C358.68 469.559 356.872 472.498 354.916 475.366C351.093 480.976 346.355 485.765 341.453 490.368C338.076 493.537 334.509 496.531 330.822 499.327C326.192 502.841 321.465 506.251 316.574 509.387C309.238 514.094 301.766 518.598 294.043 522.659C293.166 523.119 292.305 523.617 291.053 524.312L291.042 524.307ZM287.79 353.207C288.063 352.408 288.308 351.838 288.455 351.242C290.753 341.856 293.727 332.661 296.521 323.417C298.046 318.36 299.707 313.335 300.704 308.136C300.753 307.868 300.818 307.599 300.905 307.342C301.319 306.16 302.697 305.536 304.042 305.914C304.87 306.144 305.186 306.8 304.886 308.18C304.385 310.495 303.868 312.81 303.198 315.081C300.54 324.084 297.79 333.055 295.143 342.058C294.016 345.9 293.062 349.792 292.077 353.502C292.594 354.509 293.106 355.276 293.4 356.118C294.462 359.205 296.167 361.816 298.721 363.863C299.075 364.147 299.364 364.509 299.691 364.826C303.786 368.832 307.866 372.855 311.988 376.834C314.292 379.056 314.129 378.728 316.754 377.759C323.916 375.121 331.176 372.8 338.539 370.814C339.22 370.628 339.879 370.354 340.685 370.069C340.685 369.445 340.718 368.915 340.685 368.384C340.217 361.247 340.838 354.165 341.84 347.115C342.815 340.257 343.953 333.422 345.031 326.58C345.914 320.992 346.649 315.393 346.948 309.739C347.03 308.152 346.769 306.702 346.061 305.257C342.613 298.224 339.226 291.164 335.811 284.114C334.939 282.314 334.008 280.535 333.158 278.723C332.652 277.645 331.889 276.972 330.697 276.824C329.079 276.622 327.467 276.31 325.844 276.239C319.172 275.949 312.854 277.634 306.814 280.245C301.57 282.511 296.494 285.165 291.538 288.05C283.597 292.669 275.972 297.77 268.331 302.86C261.828 307.194 255.221 311.365 248.664 315.612C248.288 315.858 247.934 316.143 247.477 316.477C247.379 319.564 247.94 322.618 248.294 325.683C248.659 328.819 248.713 332.009 249.601 335.113C250.276 335.222 250.804 335.321 251.333 335.397C252.95 335.633 254.579 335.78 256.18 336.098C264.698 337.794 272.328 341.489 279.278 346.65C281.614 348.379 283.831 350.273 286.113 352.074C286.587 352.446 287.115 352.747 287.79 353.201V353.207ZM224.33 505.578C224.237 505.102 224.194 504.647 224.063 504.22C221.411 495.502 219.232 486.663 217.195 477.78C217.037 477.085 216.76 476.417 216.52 475.695C215.659 475.459 214.881 475.257 214.102 475.032C212.272 474.507 210.42 474.053 208.617 473.44C198.955 470.15 191.102 464.404 185.209 455.986C183.428 453.441 181.974 450.715 180.694 447.891C180.405 447.251 180.024 446.649 179.561 445.801C178.864 446.567 178.292 447.13 177.802 447.754C174.992 451.328 172.138 454.875 169.415 458.515C165.433 463.829 161.447 469.149 158.157 474.945C157.171 476.68 156.349 478.513 155.592 480.363C153.577 485.283 153.849 490.176 156.126 494.932C157.34 497.472 158.647 499.979 160.08 502.403C162.209 506.005 164.486 509.518 166.691 513.076C167.029 513.618 167.307 514.187 167.623 514.74C169.153 517.427 170.678 520.114 172.225 522.796C173.298 524.662 174.828 525.834 177.067 525.751C178.968 525.686 180.885 525.702 182.753 525.429C188.433 524.597 193.88 522.867 199.173 520.656C206.406 517.635 213.089 513.612 219.624 509.321C221.291 508.227 222.876 507.023 224.33 505.572V505.578ZM290.149 519.293C290.966 518.998 291.494 518.883 291.946 518.626C293.531 517.744 295.072 516.77 296.668 515.911C302.822 512.578 308.884 509.102 314.684 505.167C318.671 502.469 322.69 499.831 326.514 496.881C331.339 493.148 336.034 489.295 340.451 485.075C344.612 481.102 348.343 476.762 351.687 472.088C353.653 469.34 355.238 466.368 356.273 463.117C356.752 461.612 356.904 460.091 356.823 458.531C356.714 456.533 355.739 455.061 354.012 454.147C353.141 453.687 352.177 453.348 351.218 453.107C347.727 452.231 344.187 452.445 340.663 452.828C335.691 453.364 330.816 454.448 325.964 455.641C316.258 458.027 306.787 461.202 297.229 464.092C296.717 464.245 296.243 464.519 295.606 464.798C295.23 466.828 294.849 468.875 294.468 470.928C292.676 480.609 290.977 490.308 290.171 500.137C289.702 505.868 289.473 511.609 289.849 517.356C289.882 517.887 290.007 518.412 290.149 519.299V519.293ZM253.637 405.01C253.637 404.424 253.675 404.057 253.637 403.702C253.048 398.633 252.487 393.56 251.845 388.497C250.913 381.174 249.917 373.862 248.947 366.545C247.842 358.237 246.742 349.923 245.62 341.615C245.549 341.106 245.32 340.619 245.168 340.153C243.751 339.781 242.504 340.192 241.268 340.361C235.266 341.177 229.673 343.24 224.319 346.032C223.328 346.546 222.827 347.258 222.799 348.396C222.767 349.945 222.642 351.488 222.576 353.037C222.277 360.059 221.618 367.037 220.256 373.939C218.448 383.09 215.877 392 211.716 400.379C210.061 403.718 208.209 406.963 206.373 410.209C205.802 411.222 205.497 412.108 205.954 413.285C206.608 414.982 207.043 416.76 207.61 418.49C207.768 418.977 208.073 419.42 208.334 419.918C208.906 419.869 209.353 419.842 209.788 419.787C215.839 418.993 221.694 417.368 227.478 415.474C235.849 412.727 243.953 409.284 252.057 405.847C252.553 405.639 253.01 405.349 253.642 405.015L253.637 405.01ZM209.565 424.691C213.241 440.481 216.847 455.98 220.463 471.519C221.062 471.694 221.563 471.929 222.086 471.978C224.341 472.203 226.596 472.449 228.861 472.542C235.675 472.816 242.45 472.279 249.198 471.349C251.355 471.053 253.5 470.687 255.635 470.293C256.588 470.117 256.877 469.756 256.948 468.826C257.019 467.917 257.019 467.003 257.035 466.095C257.324 448.767 256.294 431.494 254.699 414.254C254.573 412.924 254.595 411.544 254.072 410.209C252.939 410.154 252.084 410.729 251.18 411.09C245.625 413.312 240.124 415.688 234.509 417.751C226.846 420.564 219.074 423.076 210.954 424.242C210.523 424.302 210.115 424.505 209.565 424.685V424.691ZM303.024 536.205C302.06 538.372 302.011 540.403 301.635 542.357C300.916 546.122 300.589 549.926 300.649 553.774C300.715 557.764 302.256 560.971 305.268 563.56C307.441 565.426 309.908 566.756 312.49 567.867C321.318 571.671 330.19 575.387 339.024 579.174C342.521 580.674 345.979 582.278 349.459 583.821C350.87 584.445 352.242 585.217 353.713 585.622C357.645 586.711 361.245 586.196 364.164 582.989C366.915 579.957 368.728 576.454 369.638 572.459C370.302 569.542 369.583 567.084 367.481 564.961C365.913 563.379 364.061 562.295 362.078 561.354C359.459 560.112 356.877 558.793 354.268 557.523C354.05 557.419 353.773 557.441 353.402 557.386C352.634 559.417 353.277 561.567 352.798 563.587C352.362 563.866 351.986 564.112 351.605 564.342C351.452 564.435 351.278 564.506 351.109 564.561C350.042 564.895 349.334 564.397 349.269 563.275C349.209 562.148 349.514 560.976 349.062 559.953C348.773 559.904 348.664 559.843 348.599 559.876C347.624 560.363 346.676 560.894 345.685 561.338C344.868 561.71 344.018 562.033 343.152 562.268C342.875 562.345 342.324 562.164 342.21 561.94C342.03 561.589 341.97 561.042 342.123 560.692C342.324 560.216 342.711 559.756 343.131 559.438C343.996 558.782 344.917 558.19 345.848 557.632C346.861 557.025 347.923 556.51 348.936 555.908C349.535 555.552 349.759 554.852 349.568 554.266C349.274 553.374 348.359 552.756 347.466 552.986C346.235 553.298 345.037 553.714 343.817 554.075C343.033 554.305 342.259 554.595 341.459 554.704C341.077 554.759 340.538 554.562 340.26 554.288C339.786 553.823 340.091 553.27 340.407 552.81C341.159 551.727 342.237 551.065 343.397 550.517C344.029 550.216 344.661 549.915 345.304 549.609C344.971 548.503 344.623 547.562 344.41 546.588C344.198 545.641 344.122 544.661 343.975 543.61C330.174 541.716 316.656 539.155 303.013 536.205H303.024ZM285.378 196.019C283.662 195.396 283.657 195.363 282.039 195.576C273.499 196.698 265.771 199.883 258.756 204.864C258.162 205.285 257.607 205.767 256.992 206.139C256.093 206.681 254.187 206.396 253.451 205.652C253.032 205.225 252.945 204.694 253.125 204.136C253.457 203.096 253.822 202.062 254.154 201.022C254.824 198.937 255.505 196.857 255.586 194.64C255.603 194.23 255.739 193.715 255.047 193.442C254.176 193.776 253.424 194.443 252.716 195.116C249.361 198.324 246.028 201.542 242.722 204.798C238.251 209.199 233.812 213.637 229.357 218.06C228.981 218.432 228.627 218.826 228.213 219.258C231.176 226.395 234.101 233.455 237.031 240.51C237.347 241.266 237.69 242.01 238.027 242.754C238.06 242.831 238.142 242.891 238.213 242.946C238.283 243.001 238.365 243.039 238.523 243.132C239.645 242.694 240.816 242.223 241.998 241.775C249.998 238.732 258.25 236.619 266.67 235.119C271.936 234.183 277.235 233.379 282.41 231.978C283.722 231.622 285.024 231.206 286.282 230.697C287.023 230.396 287.714 229.909 288.335 229.394C289.059 228.792 289.049 227.906 288.335 227.249C287.807 226.762 287.208 226.308 286.57 225.996C285.351 225.394 284.087 224.874 282.823 224.37C281.141 223.697 279.414 223.117 277.747 222.4C276.925 222.05 276.146 221.551 275.433 221.004C274.801 220.517 274.883 219.548 275.553 219.138C276.163 218.76 276.827 218.443 277.508 218.202C279.131 217.622 280.786 217.124 282.41 216.555C284.724 215.745 287.055 214.962 289.108 213.566C289.778 213.112 290.454 212.619 290.998 212.023C291.995 210.95 291.755 209.675 290.394 209.182C289.212 208.755 287.948 208.443 286.701 208.361C284.169 208.192 281.625 208.246 279.087 208.137C277.824 208.082 276.555 207.951 275.307 207.732C274.512 207.59 273.772 207.212 273.532 206.21C273.951 205.368 274.681 204.831 275.444 204.344C276.364 203.758 277.323 203.233 278.221 202.62C279.948 201.449 281.663 200.256 283.346 199.019C284.31 198.313 285.051 197.404 285.383 196.009L285.378 196.019ZM159.426 528.942C159.894 526.835 160.385 524.821 160.755 522.785C160.842 522.314 160.597 521.718 160.347 521.269C159.012 518.888 157.672 516.513 156.245 514.187C152.918 508.758 149.519 503.372 145.761 498.227C145.511 497.882 145.206 497.581 144.89 497.226C141.807 499.081 138.872 500.871 135.914 502.617C132.205 504.806 128.998 507.603 126.056 510.728C124.014 512.901 122.538 515.358 122.179 518.385C121.89 520.848 121.912 523.305 122.571 525.708C122.86 526.753 123.126 527.864 123.698 528.756C125.621 531.734 127.516 534.755 129.716 537.524C133.284 542.001 137.074 546.303 140.794 550.66C144.106 554.54 147.64 558.185 151.611 561.403C155.674 564.693 159.944 564.216 163.761 561.972C166.207 560.533 167.476 558.278 167.694 555.47C167.77 554.485 167.672 553.467 167.536 552.482C166.942 548.295 165.444 544.387 163.723 540.556C163.614 540.321 163.396 540.129 163.135 539.801C162.471 540.95 161.855 542.023 161.229 543.107C160.003 543.32 158.854 543.561 157.961 542.258C158.331 540.348 159.737 538.766 160.145 536.648C158.555 536.161 157.09 535.729 155.635 535.269C155.036 535.078 154.432 534.875 153.871 534.596C153.702 534.514 153.62 534.147 153.599 533.906C153.588 533.775 153.762 533.534 153.893 533.501C154.492 533.343 155.124 533.091 155.717 533.146C156.61 533.228 157.482 533.545 158.364 533.753C159.219 533.956 160.058 534.383 161.038 534.065C160.82 532.483 160.161 531.52 158.522 531.263C157.095 531.033 155.706 530.579 154.317 530.157C153.936 530.042 153.626 529.676 153.157 529.331C155.243 527.355 157.384 529.074 159.421 528.953L159.426 528.942ZM258.418 402.777C258.93 402.623 259.377 402.547 259.78 402.366C266.076 399.536 272.372 396.718 278.641 393.833C280.939 392.777 281.364 393.095 281.625 389.876C281.691 389.061 281.908 388.262 282.023 387.446C283.286 378.514 284.501 369.571 286.353 360.732C286.674 359.205 286.244 358.198 285.095 357.164C280.492 352.999 275.569 349.272 270.215 346.152C264.578 342.868 258.516 340.772 252.003 340.099C251.382 340.033 250.734 339.825 250.178 340.602C250.178 340.838 250.14 341.204 250.184 341.56C252.781 361.723 255.385 381.88 257.999 402.038C258.021 402.202 258.173 402.35 258.424 402.777H258.418ZM246.573 304.978C247.482 304.327 248.087 303.954 248.631 303.5C253.016 299.811 257.405 296.128 261.762 292.412C267.029 287.913 271.92 283.053 276.293 277.656C279.18 274.099 281.658 270.311 283.504 266.113C284.997 262.715 285.683 259.168 285.427 255.452C285.247 252.858 284.495 250.455 283.096 248.249C282.426 247.198 281.642 246.843 280.373 247.012C276.054 247.576 271.718 247.997 267.394 248.512C263.522 248.972 259.655 249.513 255.777 249.946C254.65 250.072 253.958 250.614 253.457 251.566C251.79 254.713 250.293 257.931 249.323 261.368C247.804 266.737 246.889 272.221 246.431 277.771C245.723 286.331 245.788 294.902 246.344 303.467C246.366 303.818 246.447 304.168 246.573 304.983V304.978ZM242.782 319.022C241.486 319.394 240.456 319.744 239.405 319.974C238.185 320.237 237.009 320.04 236.219 318.967C235.364 317.807 235.489 316.537 236.219 315.382C236.802 314.468 237.494 313.609 238.229 312.815C239.155 311.819 240.168 310.894 241.159 309.964C241.796 309.362 242.123 308.661 242.052 307.775C242.003 307.14 241.965 306.499 241.932 305.865C241.361 295.296 241.045 284.733 242.286 274.186C243.142 266.912 244.53 259.781 247.646 253.087C247.902 252.54 248 251.916 248.207 251.188C245.848 251.008 243.741 251.221 241.54 251.944C241.747 253.093 241.927 254.155 242.134 255.216C243.196 260.64 241.546 265.095 237.401 268.664C234.7 270.99 231.759 272.927 228.431 274.257C225.724 275.341 222.963 276.2 220.136 276.879C219.624 276.999 219.14 277.224 218.47 277.459C218.546 278.592 218.568 279.676 218.715 280.743C218.873 281.914 219.134 283.075 219.379 284.235C221.672 295.05 222.767 306.018 223.339 317.041C223.72 324.32 223.725 331.615 223.508 338.906C223.486 339.59 223.29 340.345 223.938 341.056C226.149 340.175 228.295 339.228 230.506 338.468C232.821 337.674 235.19 337.045 237.537 336.361C239.787 335.709 242.199 335.868 244.394 335.14C244.498 334.708 244.634 334.44 244.607 334.193C244.149 329.661 243.675 325.13 243.185 320.598C243.136 320.16 242.967 319.733 242.777 319.016L242.782 319.022ZM392.899 238.967C391.821 238.896 391.189 238.814 390.563 238.819C384.844 238.907 379.125 238.885 373.418 239.131C364.807 239.503 356.207 240.001 347.607 240.554C339.46 241.079 331.323 241.731 323.181 242.349C322.282 242.415 321.383 242.596 320.496 242.771C319.553 242.957 318.513 242.749 317.506 243.411C317.811 243.969 318.018 244.456 318.306 244.878C321.95 250.225 325.109 255.868 328.268 261.505C328.839 262.529 329.602 263.18 330.571 263.722C336.328 266.923 342.488 268.62 349.067 268.571C356.757 268.516 363.625 266.004 369.752 261.319C374.093 258.002 378.221 254.478 382.099 250.614C385.514 247.209 388.918 243.805 392.098 240.176C392.316 239.925 392.469 239.618 392.899 238.956V238.967ZM312.304 243.816C304.244 244.451 296.319 245.294 288.4 246.219C288.161 246.246 287.943 246.432 287.589 246.607C287.752 247.062 287.872 247.488 288.057 247.883C290.143 252.343 290.47 256.984 289.533 261.768C288.569 266.683 286.451 271.099 283.668 275.188C281.059 279.03 278.27 282.746 274.975 286.03C272.274 288.723 269.578 291.443 266.713 293.955C261.31 298.684 255.782 303.265 250.32 307.922C249.356 308.743 248.446 309.63 247.52 310.495C247.482 310.533 247.52 310.653 247.542 310.96C248.299 310.549 249.007 310.227 249.65 309.805C254.671 306.527 259.666 303.215 264.693 299.948C272.078 295.148 279.447 290.321 286.886 285.609C290.181 283.523 293.585 281.591 297.027 279.758C301.036 277.623 305.24 275.899 309.559 274.482C315.289 272.599 321.133 271.428 327.205 271.784C327.723 271.816 328.246 271.718 328.752 271.68C329.084 270.749 328.578 270.153 328.229 269.545C324.504 263.081 320.801 256.601 317.005 250.176C315.714 247.992 314.352 245.825 312.315 243.816H312.304ZM292.551 76.2901C292.551 75.4691 292.583 74.6482 292.545 73.8327C292.365 70.1821 291.799 66.5918 290.808 63.0671C290.361 61.4799 289.348 60.544 287.409 60.544C286.783 60.544 286.14 60.6316 285.525 60.7629C284.55 60.9709 283.586 61.2391 282.622 61.4909C277.176 62.9248 271.707 63.1273 266.201 61.8466C263.995 61.3321 261.79 60.7903 259.568 60.3743C258.152 60.1116 256.697 59.9693 255.254 59.9365C253.882 59.9037 253.223 60.4181 252.918 61.7481C252.678 62.7989 252.569 63.9154 252.613 64.9936C252.662 66.351 252.945 67.7028 253.086 69.0601C253.239 70.505 253.479 71.9609 253.441 73.4003C253.397 75.2283 252.64 76.0985 250.913 76.4488C249.683 76.7006 248.408 76.7553 247.145 76.8374C246.333 76.8867 245.511 76.7553 244.705 76.8374C243.142 76.9961 242.205 78.1619 242.586 79.6944C242.891 80.9094 243.419 82.1025 244.046 83.1917C245.336 85.4411 247.281 87.0885 249.329 88.6319C250.701 89.6663 252.073 90.7172 253.337 91.8775C254.775 93.1965 256.382 94.1488 258.222 94.7509C263.941 96.6336 269.79 97.7994 275.814 97.98C278.657 98.0675 281.407 97.5859 284.071 96.5624C285.28 96.0972 286.304 95.3912 287.175 94.4225C289.228 92.1511 290.612 89.524 291.429 86.5795C292.365 83.2136 292.654 79.7765 292.551 76.2956V76.2901ZM220.539 174.685C219.101 175.43 218.366 176.639 217.342 177.499C212.462 181.587 207.637 185.73 202.724 189.78C199.217 192.675 195.611 195.439 192.055 198.274C188.776 200.885 185.672 203.682 182.829 206.763C181.032 208.706 179.354 210.742 178.069 213.068C177.372 214.327 176.68 215.608 176.735 217.025C176.996 217.255 177.116 217.458 177.263 217.479C177.797 217.556 178.336 217.6 178.88 217.616C184.528 217.759 190.127 217.124 195.682 216.226C201.325 215.318 206.918 214.114 212.528 213.035C214.124 212.729 215.719 212.4 217.233 212.099C220.038 206.002 222.255 181.439 220.545 174.685H220.539ZM346.104 373.89C345.739 375.099 346.044 376.166 346.246 377.223C347.722 384.819 350.641 391.836 354.551 398.486C355.515 400.128 356.746 400.719 358.5 400.812C362.971 401.042 367.383 400.724 371.718 399.591C374.986 398.737 378.09 397.479 380.879 395.53C381.756 394.917 382.546 394.178 383.215 393.626C383.264 393.248 383.303 393.155 383.281 393.067C381.745 386.587 379.534 380.326 377.099 374.141C376.729 373.205 376.124 372.68 375.149 372.467C372.573 371.903 369.97 371.591 367.334 371.498C360.771 371.273 354.301 372.04 347.874 373.32C347.27 373.441 346.692 373.698 346.099 373.89H346.104ZM215.343 470.49C215.12 469.176 215.011 468.289 214.815 467.419C213.813 462.888 212.838 458.35 211.765 453.835C209.707 445.16 207.604 436.496 205.497 427.827C205.262 426.875 205.164 425.84 204.244 424.932C201.793 424.822 199.184 424.713 196.532 424.598C196.014 425.178 195.508 425.692 195.061 426.251C192.055 430.011 189.065 433.787 186.059 437.553C185.263 438.549 184.457 439.528 183.64 440.503C183.188 441.044 183.101 441.63 183.325 442.287C183.504 442.801 183.673 443.321 183.869 443.83C189.168 457.562 199.135 466.084 213.045 470.183C213.622 470.353 214.254 470.353 215.333 470.495L215.343 470.49ZM373.924 367.393C373.537 364.662 365.695 347.055 351.959 317.982C351.779 317.599 351.725 317.062 350.935 317.062C350.695 318.918 350.499 320.801 350.205 322.667C349.094 329.678 347.923 336.683 346.829 343.7C345.892 349.731 345.211 355.796 345.053 361.904C345.004 363.814 345.053 365.729 345.14 367.639C345.162 368.115 345.505 368.575 345.707 369.062C348.185 368.646 350.499 368.203 352.825 367.875C355.156 367.546 357.498 367.245 359.845 367.092C362.193 366.939 364.556 366.917 366.909 366.972C369.24 367.026 371.566 367.245 373.924 367.398V367.393ZM261.681 463.895C262.705 463.161 262.961 462.264 263.353 461.497C266.653 455.088 269.18 448.367 271.217 441.449C273.641 433.234 275.536 424.893 277.143 416.487C278.199 410.942 279.114 405.376 280.073 399.81C280.144 399.411 280.029 398.984 280.002 398.535C277.404 399.241 260.711 406.854 258.734 408.244C258.838 409.76 258.947 411.386 259.067 413.006C259.72 421.724 260.532 430.432 260.989 439.162C261.387 446.797 261.381 454.453 261.561 462.105C261.572 462.608 261.626 463.112 261.675 463.895H261.681ZM384.288 398.88C383.047 399.575 381.827 400.319 380.558 400.959C379.261 401.611 377.938 402.207 376.593 402.738C375.329 403.236 374.038 403.68 372.731 404.024C371.337 404.397 369.91 404.692 368.483 404.917C367.056 405.141 365.602 405.245 364.164 405.398C362.759 405.551 361.321 405.311 359.649 405.694C360.139 406.504 360.433 407.144 360.864 407.675C363.587 411.079 366.283 414.505 369.082 417.844C375.095 425.008 381.271 432.036 386.734 439.654C386.984 440.005 387.322 440.295 387.698 440.7C387.899 440.322 388.123 440.098 388.128 439.873C388.161 427.208 387.611 414.587 385.35 402.098C385.165 401.063 385.252 399.892 384.299 398.874L384.288 398.88ZM259.306 97.4217C259.154 97.7227 259.012 97.876 259.012 98.0292C259.023 101.313 258.674 104.559 258.168 107.804C257.71 110.716 257.912 113.633 259.045 116.391C260.973 121.076 264.143 124.749 268.353 127.491C269.48 128.224 270.787 128.684 272.04 129.209C273.173 129.686 274.142 129.352 275.002 128.498C276.473 127.042 277.301 125.236 277.775 123.266C278.455 120.452 278.319 117.678 277.268 114.952C276.816 113.775 276.206 112.56 276.146 111.34C275.999 108.171 275.678 104.98 276.239 101.806C276.326 101.302 276.522 100.722 275.847 100.142C270.33 99.9229 264.78 98.7462 259.306 97.4162V97.4217ZM221.901 476.8C221.928 477.43 221.885 477.966 221.988 478.475C222.26 479.81 222.571 481.146 222.914 482.465C224.526 488.633 226.149 494.796 227.788 500.953C227.919 501.435 228.224 501.872 228.513 502.469C229.03 502.102 229.417 501.878 229.744 501.588C231.579 499.968 233.382 498.304 235.239 496.706C240.282 492.366 244.77 487.484 249.127 482.476C250.854 480.489 252.4 478.349 254.007 476.258C254.192 476.017 254.23 475.656 254.41 475.136C251.48 475.514 248.806 475.897 246.121 476.187C243.506 476.466 240.887 476.718 238.267 476.86C235.555 477.003 232.832 476.981 230.114 477.057C227.418 477.134 224.738 476.379 221.901 476.817V476.8ZM341.006 375.154C337.706 375.422 328.273 378.219 319.902 381.399C319.439 381.574 319.014 381.864 318.606 382.088C318.687 382.351 318.687 382.46 318.742 382.521C319.058 382.844 319.368 383.172 319.711 383.462C325 387.939 330.811 391.628 336.965 394.764C340.522 396.576 344.252 397.999 348.125 398.995C348.506 399.093 348.92 399.044 349.383 399.066C347.656 395.049 345.799 391.299 344.427 387.381C343.054 383.457 342.161 379.363 341.006 375.159V375.154ZM297.768 369.949C297.735 370.206 297.654 370.463 297.686 370.71C298.209 374.847 298.743 378.985 299.299 383.117C299.353 383.533 299.576 383.922 299.783 384.496C302.828 383.21 305.731 381.984 308.634 380.747C308.704 380.715 308.77 380.621 308.802 380.539C308.83 380.463 308.808 380.37 308.808 380.14C305.366 376.823 301.858 373.441 298.34 370.069C298.236 369.971 298.008 369.998 297.779 369.954L297.768 369.949ZM223.475 52.0826C223.785 52.203 223.883 52.2851 223.938 52.2577C228.213 50.282 232.521 48.3719 236.748 46.2921C240.119 44.6337 242.869 42.1052 245.418 39.3631C245.522 39.2537 245.516 39.0457 245.609 38.69C245.2 38.7885 244.846 38.7939 244.568 38.9417C241.361 40.6493 237.957 41.9081 234.607 43.3038C232.445 44.2068 230.348 45.3288 228.344 46.5548C226.231 47.8464 224.526 49.6088 223.464 52.0771L223.475 52.0826ZM199.898 419.918C201.243 420.241 202.158 420.46 203.095 419.792C203.024 418.774 202.871 417.882 201.902 417.122C201.254 418.025 200.693 418.802 199.892 419.918H199.898Z" fill="black"/>
<path d="M223.475 52.0824C224.537 49.6141 226.242 47.8517 228.355 46.5601C230.359 45.3341 232.45 44.2121 234.618 43.3091C237.962 41.9134 241.366 40.6546 244.579 38.947C244.857 38.7992 245.206 38.7883 245.62 38.6953C245.522 39.051 245.527 39.259 245.429 39.3684C242.88 42.1105 240.135 44.639 236.758 46.2974C232.532 48.3772 228.224 50.2873 223.949 52.2631C223.894 52.2904 223.796 52.2083 223.486 52.0879L223.475 52.0824Z" fill="white"/>
<path d="M106.215 149.914C105.148 151.507 103.688 152.306 102 153.74C102.267 152.295 102.425 151.452 102.583 150.593C103.677 149.881 104.794 149.772 106.215 149.914Z" fill="white"/>
<path d="M270.09 160.838C268.369 162.092 266.828 161.884 265.232 160.795C264.524 160.313 263.81 159.618 262.667 159.842C262.492 161.626 262.302 163.422 262.149 165.222C262.062 166.273 261.474 166.875 260.521 167.16C259.431 167.488 258.467 166.804 258.446 165.677C258.435 165.228 258.549 164.773 258.593 164.325C258.805 162.064 259.012 159.804 259.224 157.5C257.934 156.219 256.278 155.644 254.829 154.741C254.061 154.265 253.255 153.844 252.504 153.34C252.024 153.017 252.084 152.311 252.569 151.939C253.5 151.222 254.524 150.987 255.619 151.496C256.273 151.802 256.877 152.213 257.52 152.558C258.059 152.848 258.614 153.105 259.361 153.477C259.529 152.596 259.726 151.917 259.78 151.222C259.84 150.434 260.139 149.816 260.744 149.35C261.425 148.825 262.16 148.546 263.135 149C263.794 151.162 262.656 153.428 263.211 155.672C265.466 157.149 267.726 158.633 269.981 160.138C270.079 160.203 270.046 160.472 270.101 160.833L270.09 160.838Z" fill="black"/>
<path d="M240.783 178.806C241.655 178.106 241.774 177.165 242.09 176.344C242.581 175.063 243.539 174.548 244.841 174.543C245.543 174.543 246.083 175.134 245.914 175.802C245.739 176.508 245.473 177.186 245.244 177.876C244.961 178.73 244.677 179.589 244.345 180.574C244.999 181.007 245.56 181.434 246.175 181.773C247.45 182.473 248.773 183.07 250.015 183.82C250.396 184.05 250.57 184.624 250.859 185.073C249.388 186.102 248.065 186.157 246.66 185.347C245.647 184.767 244.579 184.28 243.365 183.667C243.027 184.29 242.689 184.789 242.477 185.341C241.981 186.611 241.562 187.914 241.094 189.194C240.778 190.065 240.081 190.426 239.215 190.557C237.826 190.771 237.074 189.982 237.515 188.647C238.06 187.005 238.714 185.407 239.302 183.781C239.514 183.196 239.65 182.588 239.868 181.844C239.03 181.357 238.262 180.903 237.483 180.47C236.056 179.682 234.602 178.932 233.197 178.106C232.946 177.958 232.701 177.504 232.739 177.236C232.783 176.951 233.115 176.628 233.409 176.469C234.346 175.966 235.31 175.971 236.263 176.502C237.21 177.033 238.169 177.553 239.133 178.057C239.683 178.341 240.26 178.571 240.794 178.806H240.783Z" fill="black"/>
<path d="M293.612 144.381C291.837 143.532 290.214 142.761 288.596 141.978C287.867 141.622 287.126 141.272 286.423 140.867C285.96 140.599 285.83 139.909 286.069 139.411C286.701 138.098 287.801 137.665 289.19 138.267C290.437 138.804 291.646 139.422 292.883 139.98C293.362 140.194 293.879 140.336 294.571 140.571C294.909 139.231 295.214 138.01 295.53 136.795C295.818 135.668 296.472 134.858 297.566 134.425C298.362 134.113 299.091 134.617 298.95 135.471C298.776 136.543 298.509 137.6 298.264 138.661C298.024 139.718 297.763 140.768 297.496 141.88C298.612 143.275 300.693 143.215 301.695 144.671C300.279 146.98 299.947 147.073 296.635 146.017C296.423 146.564 296.096 147.106 296.003 147.686C295.786 149.038 294.903 149.706 293.759 150.166C293.084 150.434 292.425 149.958 292.523 149.235C292.61 148.611 292.801 147.998 292.937 147.38C293.139 146.499 293.335 145.618 293.612 144.37V144.381Z" fill="black"/>
<path d="M209.195 249.814C210.638 248.638 211.907 248.703 213.138 249.574C214.314 250.406 215.425 251.325 216.689 252.299C217.255 251.467 217.745 250.717 218.263 249.995C218.894 249.108 219.766 248.736 220.844 248.796C221.58 248.835 222.004 249.437 221.688 250.115C221.231 251.101 220.697 252.053 220.207 253.027C219.967 253.509 219.744 253.996 219.494 254.527C220.49 255.807 221.857 256.568 222.99 257.592C223.595 258.134 224.21 258.67 224.755 259.272C225.131 259.677 224.771 260.46 224.216 260.525C222.925 260.679 221.716 260.613 220.692 259.595C219.929 258.84 219.02 258.232 218.039 257.444C217.625 257.92 217.239 258.27 216.972 258.697C216.258 259.847 215.599 261.034 214.881 262.271C214.14 262.271 213.41 262.392 212.74 262.244C211.716 262.014 211.379 261.067 211.934 260.126C212.669 258.872 213.475 257.663 214.232 256.426C214.467 256.043 214.663 255.638 214.908 255.173C213.192 253.284 210.943 252.004 209.195 249.814Z" fill="black"/>
<path d="M160.123 224.912C159.208 224.797 158.418 224.682 157.623 224.611C156.992 224.556 156.349 224.6 155.728 224.512C153.893 224.255 153.359 223.385 153.675 221.081C155.94 220.479 158.271 221.387 160.602 221.124C161.763 219.094 161.202 216.598 162.465 214.59C163.963 214.874 164.399 215.936 164.529 217.146C164.595 217.764 164.448 218.41 164.366 219.039C164.279 219.745 164.17 220.451 164.077 221.086C165.047 221.913 166.103 221.557 167.062 221.727C168.064 221.902 169.028 222.121 169.687 222.985C170.014 223.418 170.395 223.877 170.128 224.463C169.867 225.032 169.327 225.131 168.75 225.092C167.394 225.005 166.038 224.917 164.682 224.857C164.328 224.841 163.974 224.928 163.587 224.972C162.759 226.483 162.906 228.19 162.449 229.739C162.296 230.254 162.182 230.784 161.975 231.272C161.801 231.688 161.109 231.781 160.809 231.474C159.954 230.593 159.382 229.602 159.606 228.3C159.786 227.232 159.933 226.165 160.129 224.901L160.123 224.912Z" fill="black"/>
<path d="M288.586 172.343C290.214 173.399 291.581 174.286 292.937 175.183C293.52 175.566 293.847 176.07 293.531 176.798C291.984 177.985 290.53 177.728 289.081 176.568C288.596 176.179 288.008 175.928 287.284 175.506C286.799 176.716 286.325 177.783 285.933 178.883C285.514 180.049 284.648 180.596 283.515 180.826C282.562 181.023 281.876 180.328 282.153 179.403C282.333 178.796 282.605 178.215 282.845 177.624C283.363 176.371 283.891 175.123 284.386 173.952C283.76 172.868 282.758 172.562 281.952 172.009C281.053 171.39 280.122 170.832 279.24 170.192C278.777 169.852 278.891 169.146 279.398 168.813C280.476 168.107 281.576 167.964 282.714 168.659C283.64 169.223 284.566 169.781 285.552 170.372C286.456 169.524 286.679 168.424 287.088 167.455C287.507 166.454 288.204 165.786 289.201 165.49C289.582 165.375 290.176 165.392 290.443 165.616C290.699 165.835 290.829 166.454 290.721 166.804C290.367 167.931 289.871 169.01 289.435 170.11C289.174 170.772 288.923 171.445 288.575 172.348L288.586 172.343Z" fill="black"/>
<path d="M216.574 148.967C217.146 150.045 216.607 150.872 216.373 151.726C216.133 152.596 215.877 153.461 215.578 154.506C216.34 154.774 216.994 155.031 217.658 155.228C218.524 155.486 219.428 155.644 220.272 155.956C220.506 156.044 220.664 156.531 220.702 156.854C220.73 157.056 220.517 157.396 220.321 157.5C219.412 157.981 218.448 158.151 217.429 157.888C216.645 157.686 215.855 157.516 214.929 157.297C214.641 157.916 214.336 158.452 214.134 159.027C213.72 160.231 213.345 161.451 212.99 162.672C212.691 163.712 211.956 164.089 210.964 164.16C209.532 164.264 208.928 163.558 209.341 162.168C209.706 160.948 210.158 159.755 210.54 158.54C210.725 157.943 210.834 157.319 211.008 156.569C210.376 156.323 209.826 156.033 209.238 155.885C207.659 155.48 206.057 155.163 204.483 154.741C204.108 154.643 203.808 154.265 203.427 153.986C204.287 152.694 205.469 152.623 206.646 152.755C207.631 152.864 208.59 153.176 209.565 153.373C210.262 153.515 210.97 153.619 211.574 153.723C212.582 153.083 212.5 152.049 212.833 151.238C213.143 150.478 213.317 149.673 214.102 149.219C214.848 148.792 215.61 148.622 216.569 148.956L216.574 148.967Z" fill="black"/>
<path d="M232.249 137.567C232.636 136.675 232.908 135.908 233.289 135.197C233.834 134.168 234.667 133.533 235.898 133.549C236.497 133.56 236.954 134.053 236.807 134.628C236.644 135.241 236.415 135.837 236.208 136.439C235.914 137.288 235.62 138.136 235.288 139.094C236.088 139.542 236.78 139.942 237.488 140.32C238.213 140.697 238.98 140.998 239.667 141.436C240.01 141.655 240.358 142.082 240.424 142.465C240.511 142.974 239.983 143.127 239.563 143.341C238.501 143.872 237.505 143.861 236.448 143.313C235.745 142.947 234.972 142.711 234.188 142.399C233.344 143.56 233 144.791 232.592 145.979C232.145 147.265 231.17 147.801 229.994 148.124C229.34 148.305 228.649 147.692 228.807 147.041C228.976 146.34 229.221 145.65 229.482 144.977C230.01 143.631 230.522 142.285 230.969 140.965C229.586 139.504 227.483 139.493 226.307 138.026C227.614 136.083 228.137 136.034 232.249 137.578V137.567Z" fill="black"/>
<path d="M204.026 230.264C204.478 229.241 204.968 228.174 205.426 227.096C206.074 225.574 207.179 224.857 208.797 225.016C209.532 225.651 209.298 226.351 209.064 227.046C208.748 227.971 208.094 228.792 208.182 229.881C209.189 230.374 210.164 229.947 211.128 229.909C212.174 229.865 212.789 230.193 212.795 230.828C212.795 231.343 212.332 231.731 211.417 231.868C209.908 232.092 208.389 232.268 206.787 232.476C206.014 234.282 205.268 236.022 204.522 237.763C204.233 238.43 203.972 239.114 203.225 239.426C202.583 239.695 201.973 239.645 200.557 239.158C200.508 236.925 202.365 235.3 202.654 233.006C201.591 232.569 200.54 232.968 199.516 232.919C198.596 232.875 197.512 233.308 196.788 232.114C198.732 230.013 201.461 231.217 204.031 230.264H204.026Z" fill="black"/>
<path d="M162.269 200.173C161.741 201.635 161.24 202.987 160.76 204.344C160.537 204.979 160.254 205.521 159.377 205.455C158.217 204.284 157.738 202.954 158.489 201.295C158.745 200.732 158.843 200.097 159.061 199.352C158.108 199.051 157.253 198.8 156.409 198.504C155.129 198.055 154.573 197.076 154.579 195.773C154.579 195.456 154.84 195.144 155.047 194.684C156.681 195.16 158.233 195.614 159.927 196.112C160.2 195.647 160.499 195.22 160.717 194.755C161.245 193.617 161.343 192.287 162.16 191.291C163.789 191.745 164.459 192.719 164.164 194.246C163.996 195.127 163.712 195.981 163.467 196.884C164.339 197.617 165.374 197.65 166.278 198.011C167.247 198.4 167.993 199.024 168.293 200.075C168.44 200.589 167.971 201.262 167.443 201.219C166.909 201.169 166.381 201.033 165.847 200.934C164.704 200.715 163.603 200.261 162.269 200.168V200.173Z" fill="black"/>
<path d="M181.636 241.293C181.957 241.15 182.284 240.866 182.562 240.904C183.869 241.101 184.953 241.616 185.449 243.022C185.677 243.684 186.14 244.259 186.549 244.971C187.131 244.675 187.594 244.418 188.074 244.204C189.419 243.608 190.9 244.38 191.091 245.852C191.135 246.208 190.862 246.733 190.568 246.99C189.898 247.576 189.13 248.041 188.504 248.479C188.39 250.362 190.525 251.555 189.582 253.492C187.306 253.711 186.516 251.938 185.59 250.537C183.88 250.745 183.074 252.502 181.429 252.551C181.342 252.551 181.255 252.502 181.064 252.447C180.443 250.783 180.634 249.338 182.252 248.233C182.769 247.882 183.221 247.439 183.717 247.018C183.412 244.96 181.87 243.427 181.636 241.287V241.293Z" fill="black"/>
<path d="M187.447 193.359C186.685 192.905 186.113 192.653 185.65 192.265C185.062 191.772 184.822 191.094 185.024 190.305C185.274 189.342 185.508 188.373 185.792 187.235C185.356 186.994 184.898 186.77 184.474 186.491C183.58 185.9 182.6 185.363 182.567 183.995C183.891 183.081 185.209 184.318 186.663 183.88C187.039 182.911 187.453 181.828 187.894 180.689C189.348 180.361 190.334 180.93 191.069 182.151C190.927 182.961 190.786 183.749 190.622 184.663C191.439 184.953 192.229 185.144 192.937 185.5C193.656 185.861 194.391 186.321 194.446 187.273C194.473 187.793 193.58 188.018 192.338 187.832C191.543 187.711 190.748 187.618 189.871 187.498C188.754 189.26 188.809 191.433 187.447 193.365V193.359Z" fill="black"/>
<path d="M190.105 169.787C188.989 170.433 188.068 170.996 187.121 171.505C185.901 172.151 184.964 171.982 183.951 170.991C183.357 170.411 183.439 169.623 184.185 169.179C185.111 168.632 186.064 168.145 187.208 167.521C186.718 166.908 186.369 166.415 185.966 165.988C185.47 165.463 184.882 165.02 184.419 164.472C184.229 164.248 184.12 163.75 184.245 163.52C184.359 163.307 184.893 163.115 185.133 163.208C185.879 163.493 186.62 163.859 187.279 164.308C188.019 164.812 188.678 165.441 189.43 166.065C190.612 165.835 191.543 165.091 192.578 164.576C193.678 164.035 194.68 164.297 195.655 164.883C196.123 165.168 196.232 165.945 195.824 166.3C195.35 166.711 194.816 167.061 194.299 167.411C193.716 167.811 193.117 168.183 192.36 168.67C193.297 169.519 194.103 170.23 194.887 170.969C195.143 171.21 195.41 171.489 195.546 171.806C195.639 172.014 195.59 172.37 195.459 172.562C195.328 172.753 194.952 172.978 194.795 172.912C194.054 172.6 193.313 172.255 192.649 171.806C191.832 171.254 191.096 170.58 190.111 169.787H190.105Z" fill="black"/>
<path d="M372.775 196.813C374.703 195.861 375.552 194.065 377.676 193.775C377.448 193.244 377.328 192.839 377.115 192.484C375.275 189.402 375.231 186.184 376.881 183.114C379.185 178.834 382.812 176.327 387.752 176.053C390.753 175.884 393.269 177.099 395.246 179.266C398.83 183.196 399.87 187.886 398.525 192.971C397.474 196.944 394.805 199.511 390.791 200.644C387.73 201.509 384.691 201.323 381.658 200.633C379 200.031 376.462 199.057 374.049 197.771C373.739 197.607 373.477 197.349 372.769 196.813H372.775ZM379.937 194.624C383.221 196.446 386.287 197.163 389.457 197.201C392.322 197.234 394.402 195.395 395.17 192.615C395.519 191.356 395.529 190.097 395.159 188.839C393.928 184.668 391.162 181.981 387.126 180.613C385.835 180.175 384.468 180.12 383.09 180.399C381.837 180.651 380.912 181.308 380.361 182.441C379.234 184.778 379.141 187.169 380.198 189.561C380.356 189.911 380.715 190.174 381.026 190.53C381.522 189.556 381.897 188.74 382.338 187.963C383.03 186.748 384.06 185.856 385.241 185.15C387.001 184.099 388.732 184.252 390.323 185.473C392.632 187.257 393.373 189.769 392.79 192.527C392.637 193.255 392.093 194.087 391.477 194.503C389.642 195.735 387.649 196.162 385.623 194.821C384.953 194.377 384.299 193.907 383.689 193.491C382.535 193.841 381.5 194.153 379.926 194.635L379.937 194.624ZM389.283 191.575C389.19 191.115 389.157 190.595 388.978 190.13C388.645 189.266 388.063 188.576 387.197 188.204C386.979 188.111 386.625 188.1 386.434 188.22C386.249 188.335 386.08 188.669 386.096 188.893C386.145 189.818 386.418 190.705 387.18 191.274C387.73 191.685 388.357 192.15 389.283 191.581V191.575Z" fill="black"/>
<path d="M351.251 254.811C349.775 256.103 349.29 257.936 347.727 258.987C347.232 258.549 346.796 258.238 346.447 257.843C345.685 256.979 345.603 256.316 346.153 255.381C346.649 254.527 347.21 253.711 347.82 252.759C347.417 252.305 347.117 251.867 346.72 251.549C345.941 250.925 345.058 250.427 344.323 249.76C343.898 249.371 343.675 248.758 343.229 248.03C345.865 247.603 347.03 249.924 349.062 250.438C350.51 249.393 350.99 247.456 352.351 246.306C353.462 246.547 354.361 247.249 355.047 248.413C354.208 249.793 353.321 251.254 352.411 252.753C353.201 253.963 354.47 254.346 355.472 255.063C356.283 255.643 357.149 256.141 357.923 256.765C358.135 256.935 358.233 257.46 358.146 257.739C357.983 258.243 357.465 258.336 357.024 258.15C356.441 257.909 355.897 257.57 355.352 257.252C354.029 256.475 352.711 255.682 351.251 254.811Z" fill="black"/>
<path d="M367.1 250.925C365.929 251.068 364.976 251.73 364.006 252.381C362.999 253.06 361.926 252.961 360.924 252.425C360.57 252.239 360.259 251.768 360.156 251.369C360.03 250.887 360.439 250.57 360.875 250.362C362.018 249.82 363.162 249.283 364.284 248.703C364.91 248.38 365.499 247.986 366.087 247.631C365.798 246.465 365.548 245.436 365.286 244.38C367.098 244.285 368.563 244.814 369.681 245.967C370.199 245.748 370.749 245.414 371.337 245.283C372.11 245.113 372.933 244.987 373.706 245.069C374.153 245.118 374.741 245.534 374.921 245.939C375.155 246.476 374.692 246.941 374.169 247.209C373.526 247.543 372.873 247.855 372.241 248.2C371.697 248.495 371.174 248.824 370.705 249.097C370.994 250.646 371.266 252.047 371.506 253.454C371.528 253.585 371.337 253.755 371.25 253.903C369.623 253.852 368.238 252.861 367.094 250.931L367.1 250.925Z" fill="black"/>
<path d="M271.185 90.8538C267.889 91.0509 265.21 89.5458 262.628 87.7725C262.481 87.674 262.34 87.5371 262.242 87.3894C261.975 86.9843 261.855 86.5027 262.236 86.1524C262.465 85.939 262.912 85.7748 263.189 85.8459C263.701 85.9773 264.202 86.2455 264.643 86.5574C267.666 88.7193 270.978 89.1024 274.501 88.2486C274.85 88.1611 275.253 87.9914 275.558 88.0899C275.939 88.2158 276.457 88.5278 276.522 88.8452C276.587 89.1626 276.26 89.7537 275.95 89.9234C275.324 90.2573 274.594 90.4543 273.886 90.5802C272.998 90.7389 272.083 90.7663 271.179 90.8484L271.185 90.8538Z" fill="black"/>
<path d="M280.068 81.6098C280.133 83.1039 279.686 83.9961 278.826 84.5871C278.014 85.1454 277.105 85.5668 276.222 86.0047C275.683 86.2729 275.16 86.1689 274.801 85.6435C274.512 85.222 274.708 84.62 275.286 84.2752C275.825 83.9523 276.419 83.7115 276.958 83.3831C278.025 82.7318 278.248 82.0148 277.671 80.86C277.23 79.9733 276.653 79.1524 276.163 78.2821C275.852 77.7348 275.525 77.1766 275.356 76.58C275.286 76.3228 275.509 75.8357 275.749 75.6715C275.977 75.5128 276.408 75.6058 276.734 75.6551C276.881 75.6769 277.039 75.8576 277.132 76.0053C277.982 77.3955 278.853 78.7692 279.637 80.1977C279.931 80.7341 280.008 81.3909 280.073 81.6098H280.068Z" fill="black"/>
<path d="M267.171 70.8333C267.105 74.1609 264.104 75.9834 261.403 74.4783C260.559 74.0077 259.856 73.2469 259.154 72.5518C258.827 72.2289 258.762 71.7418 259.083 71.3094C259.399 70.888 260.02 70.8114 260.542 71.1945C261.125 71.6269 261.643 72.1468 262.242 72.5518C263.358 73.3071 264.649 72.8364 265.019 71.5229C265.161 71.0139 265.052 70.4282 265.194 69.9138C265.275 69.6182 265.569 69.2734 265.847 69.1585C266.332 68.9615 266.729 69.2844 266.915 69.7277C267.084 70.1382 267.133 70.5979 267.187 70.8168L267.171 70.8333Z" fill="black"/>
<path d="M281.957 70.1327C282.366 70.3954 282.785 70.5158 282.916 70.7786C283.232 71.4189 283.379 72.1468 283.657 72.8091C284.201 74.1171 284.909 74.3689 286.222 73.7669C286.467 73.6574 286.685 73.4768 286.93 73.3619C287.376 73.1539 287.899 73.132 288.101 73.6081C288.248 73.9584 288.248 74.5659 288.03 74.8451C286.658 76.6293 284.071 76.7004 282.578 75.0311C281.625 73.9694 281.271 72.6449 281.222 71.2657C281.211 70.9263 281.652 70.5761 281.957 70.1273V70.1327Z" fill="black"/>
<path d="M284.898 66.0826C287.18 66.2523 289.016 67.3743 290.203 69.4979C290.328 69.7222 290.198 70.2094 290.023 70.4666C289.729 70.8935 289.261 70.8825 288.836 70.6034C288.613 70.4556 288.389 70.2914 288.221 70.0835C287.257 68.9177 286.075 68.1898 284.523 68.1405C284.348 68.1405 284.169 68.0803 284 68.0201C283.542 67.845 283.237 67.5275 283.308 67.0076C283.379 66.4986 283.755 66.2633 284.218 66.1538C284.392 66.11 284.572 66.1155 284.893 66.0881L284.898 66.0826Z" fill="black"/>
<path d="M261.485 65.0153C261.621 65.0153 262.051 65.0263 262.296 65.2343C262.601 65.4915 262.879 65.9129 262.928 66.296C262.955 66.4985 262.47 66.9747 262.225 66.9692C260.553 66.9473 259.273 67.6205 258.299 68.9614C258.201 69.0983 258.01 69.246 257.857 69.2515C257.525 69.2679 257.089 69.3062 256.877 69.1256C256.665 68.9395 256.523 68.4415 256.621 68.1733C257.286 66.3398 259.312 64.9934 261.485 65.0153Z" fill="black"/>
<path d="M379.937 194.624C381.511 194.148 382.545 193.83 383.7 193.48C384.304 193.901 384.964 194.367 385.633 194.81C387.659 196.151 389.647 195.724 391.488 194.492C392.104 194.082 392.648 193.25 392.801 192.517C393.384 189.758 392.643 187.241 390.334 185.462C388.743 184.236 387.017 184.083 385.252 185.139C384.07 185.845 383.041 186.737 382.349 187.952C381.908 188.729 381.532 189.545 381.037 190.519C380.726 190.163 380.361 189.906 380.209 189.55C379.152 187.158 379.245 184.767 380.372 182.43C380.917 181.297 381.843 180.64 383.101 180.388C384.473 180.115 385.846 180.164 387.137 180.602C391.178 181.97 393.944 184.657 395.17 188.828C395.54 190.087 395.524 191.34 395.181 192.604C394.418 195.385 392.338 197.223 389.468 197.191C386.298 197.152 383.226 196.435 379.947 194.613L379.937 194.624Z" fill="white"/>
<path d="M389.283 191.575C388.357 192.15 387.725 191.679 387.18 191.269C386.418 190.7 386.145 189.813 386.096 188.888C386.086 188.658 386.249 188.33 386.434 188.215C386.625 188.094 386.979 188.105 387.197 188.198C388.063 188.57 388.645 189.266 388.978 190.125C389.157 190.59 389.19 191.115 389.283 191.57V191.575Z" fill="white"/>
</g>
<defs>
<clipPath id="clip0_4_10736">
<rect width="354" height="566" fill="white" transform="translate(102 24)"/>
</clipPath>
</defs>
</svg>
