<svg width="220" height="40" viewBox="0 0 220 40" fill="none" xmlns="http://www.w3.org/2000/svg">
<path d="M85.7113 7.14071C83.8052 5.86931 81.088 5.23071 77.5717 5.23071C76.9975 5.23071 76.08 5.23652 74.8191 5.24813C73.5582 5.25974 72.1315 5.26555 70.5332 5.26555H68.0469C67.2833 5.26555 66.638 5.26555 66.0993 5.24813C65.5606 5.23652 65.1344 5.23071 64.8088 5.23071V5.63709C65.9336 5.66032 66.7801 5.75901 67.3543 5.93317C67.9285 6.10734 68.3074 6.40922 68.4968 6.85043C68.6862 7.29165 68.775 7.94186 68.775 8.79526V27.6572C68.775 28.5164 68.6803 29.155 68.4968 29.5846C68.3074 30.0142 67.9344 30.3045 67.3721 30.467C66.8097 30.6238 65.9573 30.7399 64.8088 30.8153V31.2217C65.4304 31.1985 66.2592 31.1753 67.2951 31.1463C68.3311 31.123 69.5683 31.1114 71.0186 31.1114C72.1138 31.1114 73.1142 31.1172 74.014 31.1288C74.9138 31.1405 75.7011 31.1521 76.3878 31.1637C77.0745 31.1753 77.6132 31.1927 78.0157 31.2217V30.8153C76.6423 30.7399 75.6005 30.6238 74.8901 30.467C74.1797 30.3103 73.7121 30.0084 73.4871 29.5672C73.2622 29.126 73.1497 28.4816 73.1497 27.6224V20.2494C73.2859 20.2726 73.4161 20.2959 73.5641 20.3191C74.0613 20.3946 74.5704 20.4468 75.0795 20.4816C75.5886 20.5165 76.0977 20.5339 76.595 20.5339C79.0635 20.5339 81.1887 20.2146 82.9764 19.5818C84.7583 18.9432 86.1375 18.0375 87.1084 16.8474C88.0792 15.6631 88.5705 14.2582 88.5705 12.6443C88.5705 10.2466 87.6175 8.4121 85.7113 7.14071ZM82.0233 18.3336C80.7506 19.5354 78.7912 20.1333 76.151 20.1333C75.6005 20.1333 74.9611 20.0985 74.2212 20.023C73.8482 19.9882 73.493 19.9359 73.1556 19.8721V5.67193L76.4884 5.63709C79.0813 5.61387 80.9696 6.18281 82.1595 7.3439C83.3434 8.50499 83.9354 10.3337 83.9354 12.8301C83.9354 15.3264 83.302 17.1377 82.0293 18.3336H82.0233Z" fill="#252525"/>
<path d="M112.166 29.364C111.669 29.6833 111.219 29.9213 110.817 30.0781C110.42 30.2348 110.018 30.3161 109.621 30.3161C109.147 30.3161 108.792 30.1826 108.555 29.9097C108.319 29.6427 108.2 29.2247 108.2 28.6615V18.8271C108.2 17.1145 107.922 15.6922 107.36 14.5543C106.797 13.4164 105.945 12.5746 104.796 12.0231C103.648 11.4716 102.204 11.1987 100.457 11.1987C98.8886 11.1987 97.4856 11.4077 96.2484 11.8199C95.0111 12.2379 94.0285 12.7894 93.2944 13.4919C92.5604 14.1885 92.1934 14.9781 92.1934 15.8605C92.1934 16.5456 92.4183 17.0971 92.8682 17.5093C93.3181 17.9273 93.9042 18.1304 94.6264 18.1304C95.3012 18.1304 95.834 17.9795 96.2365 17.6718C96.6331 17.3641 96.8344 16.9694 96.8344 16.4817C96.8344 16.0927 96.716 15.7096 96.4792 15.3438C96.2424 14.9781 96.0057 14.6298 95.7689 14.2988C95.5321 13.9679 95.4137 13.6544 95.4137 13.3642C95.4137 12.8997 95.7452 12.5224 96.4023 12.2263C97.0653 11.9302 97.9059 11.7851 98.93 11.7851C100.623 11.7851 101.919 12.2379 102.801 13.1436C103.684 14.0492 104.127 15.3554 104.127 17.068V17.875C104.127 18.5368 103.814 19.0535 103.192 19.4367C102.571 19.814 101.766 20.1217 100.777 20.3539C99.7884 20.5861 98.7583 20.83 97.6691 21.0854C96.5858 21.3409 95.5498 21.6718 94.5612 22.0781C93.5727 22.4845 92.7735 23.0244 92.146 23.7095C91.5244 24.3945 91.2107 25.3118 91.2107 26.4613C91.2107 27.93 91.7375 29.0795 92.8031 29.9097C93.8627 30.7399 95.2894 31.1579 97.089 31.1579C98.5334 31.1579 99.8653 30.885 101.073 30.3335C102.281 29.782 103.299 28.9924 104.122 27.9649C104.122 30.0955 105.418 31.1579 108.011 31.1579C108.857 31.1579 109.627 31.0418 110.314 30.8096C111 30.5773 111.693 30.2058 112.391 29.6891L112.166 29.3582V29.364ZM104.122 27.4946C103.5 28.2261 102.807 28.766 102.044 29.1086C101.28 29.4511 100.404 29.6194 99.4036 29.6194C98.0835 29.6194 97.089 29.3001 96.4319 28.6673C95.7689 28.0287 95.4374 27.1405 95.4374 25.991C95.4374 24.917 95.6978 24.0578 96.2247 23.425C96.7456 22.7864 97.4027 22.2871 98.19 21.9214C98.9773 21.5557 99.7824 21.2306 100.605 20.9461C101.428 20.6674 102.162 20.3597 102.813 20.0288C103.464 19.6979 103.897 19.2509 104.122 18.6878V27.4946Z" fill="#252525"/>
<path d="M137.1 6.64142L131.453 13.8228C131.453 13.8228 129.896 16.0172 129.097 17.8053L123.372 30.6237L121.093 35.8196C120.744 36.6034 120.33 37.2768 119.856 37.8399C119.383 38.4031 118.82 38.8443 118.175 39.1636C117.524 39.4829 116.754 39.6396 115.854 39.6396C114.659 39.6396 113.706 39.3668 112.989 38.8152C112.279 38.2637 111.924 37.5264 111.924 36.5976C111.924 35.837 112.172 35.2275 112.67 34.763C113.167 34.2986 113.842 34.0664 114.688 34.0664C115.31 34.0664 115.807 34.2057 116.168 34.4902C116.529 34.7688 116.713 35.1346 116.713 35.57C116.713 35.959 116.618 36.3247 116.434 36.6498C116.245 36.9807 116.056 37.2942 115.854 37.5845C115.653 37.8806 115.552 38.1592 115.552 38.4263C115.552 38.8675 115.837 39.0881 116.411 39.0881C117.358 39.0881 118.181 38.8036 118.879 38.2463C119.578 37.6832 120.164 36.853 120.637 35.75L122.502 31.6223L114.132 14.473C113.735 13.6892 113.256 13.1145 112.711 12.7488C112.16 12.383 111.486 12.1856 110.692 12.1624V11.756C111.64 11.7792 112.474 11.7967 113.202 11.8083C113.925 11.8199 114.676 11.8257 115.446 11.8257C116.346 11.8257 117.299 11.8257 118.305 11.8083C119.317 11.7967 120.282 11.7792 121.206 11.756V12.1624C119.809 12.2088 118.95 12.4585 118.625 12.8939C118.299 13.3351 118.424 14.1188 118.998 15.2451L124.61 26.827L128.428 18.322C128.949 17.1493 129.197 16.1217 129.156 15.2393C129.12 14.3569 128.824 13.6486 128.274 13.1087C127.723 12.5688 126.901 12.2553 125.805 12.1566L124.053 12.0115L137.1 6.64142Z" fill="#252525"/>
<path d="M151.16 2.10736V14.9548C151.083 14.8387 151.018 14.7168 150.935 14.6065C150.147 13.5673 149.165 12.7604 147.981 12.1972C146.797 11.6283 145.477 11.3438 144.015 11.3438C142.221 11.3438 140.611 11.7851 139.178 12.6617C137.746 13.5383 136.609 14.7284 135.768 16.2262C134.928 17.724 134.508 19.4192 134.508 21.3118C134.508 23.2044 134.928 24.8589 135.768 26.3567C136.609 27.8546 137.746 29.0389 139.178 29.9039C140.611 30.7689 142.221 31.1985 144.015 31.1985C145.5 31.1985 146.838 30.9024 148.022 30.3045C149.206 29.7123 150.177 28.8937 150.935 27.8545C151.018 27.7384 151.083 27.6165 151.16 27.4946V30.7921H154.054V2.10736H151.16ZM150.455 25.0157C149.875 26.1071 149.076 26.9605 148.058 27.5701C147.04 28.1797 145.856 28.4815 144.506 28.4815C143.156 28.4815 141.949 28.1797 140.889 27.5701C139.829 26.9605 139.001 26.1129 138.409 25.0157C137.817 23.9243 137.521 22.6703 137.521 21.2654C137.521 19.8604 137.817 18.6123 138.409 17.515C139.001 16.4236 139.818 15.5644 140.865 14.9432C141.913 14.322 143.109 14.0085 144.459 14.0085C145.808 14.0085 146.992 14.322 148.01 14.9432C149.029 15.5644 149.834 16.4178 150.426 17.4976C151.018 18.5774 151.314 19.8372 151.314 21.2654C151.314 22.6935 151.024 23.9185 150.443 25.0157H150.455Z" fill="#252525"/>
<path d="M175.572 11.7502V14.9548C175.507 14.8561 175.454 14.7458 175.389 14.6471C174.661 13.6079 173.708 12.7952 172.542 12.2146C171.369 11.6341 170.043 11.3438 168.558 11.3438C166.74 11.3438 165.101 11.785 163.638 12.6616C162.176 13.5383 161.028 14.7284 160.187 16.2262C159.347 17.724 158.926 19.4192 158.926 21.3118C158.926 23.2044 159.347 24.8531 160.187 26.3335C161.028 27.8197 162.176 29.004 163.638 29.8806C165.101 30.7572 166.752 31.1985 168.593 31.1985C170.055 31.1985 171.369 30.9082 172.542 30.3276C173.714 29.7471 174.661 28.9285 175.389 27.8777C175.46 27.7791 175.513 27.6687 175.572 27.5701V30.7979H178.467V11.7502H175.572ZM173.903 26.496C172.678 27.8197 171.062 28.4815 169.049 28.4815C167.67 28.4815 166.444 28.1738 165.373 27.5468C164.301 26.9256 163.449 26.0722 162.833 24.9924C162.212 23.9126 161.904 22.6703 161.904 21.2653C161.904 19.8604 162.212 18.6122 162.833 17.515C163.455 16.4178 164.295 15.5644 165.355 14.9432C166.415 14.322 167.634 14.0085 169.013 14.0085C170.393 14.0085 171.541 14.3104 172.548 14.92C173.554 15.5295 174.335 16.3771 174.904 17.4744C175.466 18.5658 175.75 19.8314 175.75 21.2595C175.75 23.4192 175.134 25.1608 173.909 26.4844L173.903 26.496Z" fill="#252525"/>
<path d="M201.211 15.7792C200.423 14.3859 199.352 13.3002 197.99 12.5165C196.629 11.7328 195.066 11.3438 193.302 11.3438C191.431 11.3438 189.732 11.7792 188.223 12.6384C186.707 13.5034 185.512 14.6819 184.63 16.1856C183.748 17.6834 183.31 19.3669 183.31 21.2305C183.31 23.094 183.759 24.8241 184.653 26.3335C185.547 27.8487 186.767 29.033 188.312 29.898C189.857 30.7631 191.603 31.1927 193.557 31.1927C195.102 31.1927 196.54 30.9024 197.872 30.3218C199.21 29.7413 200.329 28.9227 201.24 27.8719L199.382 26.0084C198.695 26.8444 197.854 27.4714 196.86 27.8894C195.871 28.3073 194.782 28.5163 193.598 28.5163C192.136 28.5163 190.851 28.2087 189.738 27.5817C188.625 26.9605 187.755 26.0955 187.134 24.9866C186.684 24.1855 186.406 23.2914 186.281 22.3103H202.193C202.276 21.933 202.33 21.602 202.359 21.3176C202.389 21.0331 202.401 20.7835 202.401 20.5687C202.401 18.7574 202.01 17.1609 201.223 15.7676L201.211 15.7792ZM189.537 14.8677C190.585 14.2756 191.81 13.9737 193.213 13.9737C194.616 13.9737 195.711 14.2523 196.664 14.8039C197.617 15.3554 198.346 16.1391 198.855 17.1551C199.251 17.9446 199.482 18.8619 199.553 19.8894H186.281C186.406 18.949 186.666 18.1014 187.08 17.3583C187.672 16.2901 188.489 15.4599 189.537 14.8677Z" fill="#252525"/>
<path d="M213.003 31.1753C211.955 31.1753 210.949 31.0359 209.99 30.7515C209.025 30.467 208.149 30.0722 207.367 29.5555C206.58 29.0447 205.899 28.4351 205.325 27.7326L207.184 25.8691C207.953 26.7863 208.829 27.4714 209.806 27.9126C210.783 28.3596 211.878 28.5802 213.092 28.5802C214.388 28.5802 215.4 28.3364 216.128 27.8487C216.857 27.3611 217.224 26.6877 217.224 25.8226C217.224 25.0099 216.963 24.3771 216.436 23.9185C215.915 23.4598 215.246 23.0941 214.435 22.827C213.624 22.56 212.76 22.2929 211.854 22.0375C210.949 21.782 210.078 21.4569 209.25 21.068C208.421 20.679 207.758 20.1275 207.249 19.425C206.74 18.7226 206.485 17.8053 206.485 16.6674C206.485 15.5296 206.752 14.6471 207.29 13.8518C207.829 13.0564 208.599 12.4353 209.605 11.9882C210.611 11.5412 211.801 11.3206 213.18 11.3206C214.643 11.3206 215.963 11.5761 217.147 12.0927C218.331 12.6036 219.278 13.3641 220 14.3627L218.141 16.1856C217.561 15.4541 216.839 14.8968 215.974 14.502C215.104 14.113 214.133 13.9157 213.062 13.9157C211.825 13.9157 210.878 14.1537 210.232 14.6239C209.587 15.0942 209.262 15.7095 209.262 16.4701C209.262 17.2306 209.522 17.7705 210.049 18.1943C210.57 18.6123 211.239 18.949 212.05 19.2044C212.861 19.4599 213.725 19.7153 214.631 19.9765C215.542 20.232 216.407 20.5687 217.235 20.9867C218.064 21.4047 218.727 21.9736 219.236 22.6877C219.745 23.4018 220 24.3713 220 25.5846C220 27.2856 219.372 28.6441 218.117 29.6542C216.862 30.6644 215.163 31.1753 213.015 31.1753H213.003Z" fill="#252525"/>
<path d="M14.6454 15.4773C14.6454 15.4773 11.502 15.309 7.86731 14.4497C4.29181 13.608 1.74634 12.325 1.74634 12.325L10.253 30.6702C10.253 30.6702 10.3477 25.9445 11.5849 22.0607C12.6327 18.7806 14.6513 15.4715 14.6513 15.4715L14.6454 15.4773Z" fill="#252525"/>
<path d="M3.23808 10.5485C5.02642 10.5485 6.47616 9.12674 6.47616 7.37291C6.47616 5.61908 5.02642 4.19733 3.23808 4.19733C1.44974 4.19733 0 5.61908 0 7.37291C0 9.12674 1.44974 10.5485 3.23808 10.5485Z" fill="#252525"/>
<path d="M35.5242 15.4773C35.5242 15.4773 38.6676 15.309 42.3023 14.4497C45.8778 13.608 48.4233 12.325 48.4233 12.325L39.9167 30.6702C39.9167 30.6702 39.8219 25.9445 38.5847 22.0607C37.5369 18.7806 35.5183 15.4715 35.5183 15.4715L35.5242 15.4773Z" fill="#252525"/>
<path d="M46.9375 10.5485C48.7259 10.5485 50.1756 9.12674 50.1756 7.37291C50.1756 5.61908 48.7259 4.19733 46.9375 4.19733C45.1492 4.19733 43.6995 5.61908 43.6995 7.37291C43.6995 9.12674 45.1492 10.5485 46.9375 10.5485Z" fill="#252525"/>
<path d="M25.0878 8.1973C27.3959 8.1973 29.2671 6.36227 29.2671 4.09865C29.2671 1.83503 27.3959 0 25.0878 0C22.7796 0 20.9084 1.83503 20.9084 4.09865C20.9084 6.36227 22.7796 8.1973 25.0878 8.1973Z" fill="#40E0D0"/>
<path d="M29.0361 13.219C26.3249 11.489 25.0877 9.88672 25.0877 9.88672C25.0877 9.88672 23.8505 11.4948 21.1393 13.219C18.428 14.9491 16.3265 15.4774 16.3265 15.4774L20.0915 31.1811H25.0877H30.0899L33.8548 15.4774C33.8548 15.4774 31.7474 14.9491 29.0421 13.219H29.0361Z" fill="#40E0D0"/>
</svg>
