<svg width="20" height="20" viewBox="0 0 20 20" fill="none" xmlns="http://www.w3.org/2000/svg">
    <path fill-rule="evenodd" clip-rule="evenodd"
        d="M12.556 8.32726C12.554 8.32931 12.552 8.33135 12.55 8.33334L8.33328 12.55L8.32808 12.5552L2.10828 18.775C1.98328 18.9 1.82495 18.9583 1.66662 18.9583C1.50828 18.9583 1.34995 18.9 1.22495 18.775C0.983285 18.5333 0.983285 18.1333 1.22495 17.8917L4.03599 15.0806C3.23331 14.3591 2.50933 13.4925 1.88328 12.5C0.999951 11.125 0.999951 8.88333 1.88328 7.49998C3.91662 4.31665 6.87495 2.48332 9.99995 2.48332C11.741 2.48332 13.4594 3.05447 14.984 4.13253L17.8916 1.22495C18.1333 0.983285 18.5333 0.983285 18.775 1.22495C19.0166 1.46662 19.0166 1.86662 18.775 2.10828L12.556 8.32726ZM12.0705 7.04613C11.4664 6.62044 10.7484 6.3917 9.99995 6.3917C8.00828 6.3917 6.39162 8.00837 6.39162 10C6.39162 10.7485 6.62035 11.4664 7.04606 12.0705L4.92039 14.1962C4.18653 13.5369 3.51958 12.7396 2.93328 11.825C2.30828 10.85 2.30828 9.15 2.93328 8.17499C4.73328 5.34999 7.30828 3.73332 9.99995 3.73332C11.4122 3.73332 12.8176 4.17818 14.0859 5.03069L12.0705 7.04613ZM9.99995 7.6417C10.4166 7.6417 10.8166 7.75004 11.1666 7.95004L7.94995 11.1667C7.74995 10.8167 7.64162 10.4167 7.64162 10C7.64162 8.7 8.69995 7.6417 9.99995 7.6417ZM9.99995 17.5167C8.89162 17.5167 7.80828 17.2917 6.76662 16.85C6.44995 16.7167 6.29995 16.35 6.43328 16.0333C6.56662 15.7167 6.93328 15.5667 7.24995 15.7C8.13328 16.075 9.05828 16.2667 9.99162 16.2667C12.6833 16.2667 15.2583 14.65 17.0583 11.825C17.6833 10.85 17.6833 9.15 17.0583 8.175C16.7999 7.76667 16.5166 7.375 16.2166 7.00833C15.9999 6.74167 16.0416 6.35 16.3083 6.125C16.575 5.90833 16.9666 5.94167 17.1916 6.21667C17.5166 6.61667 17.8333 7.05 18.1166 7.5C19 8.875 19 11.1167 18.1166 12.5C16.0833 15.6833 13.125 17.5167 9.99995 17.5167ZM9.95828 13.05C10.0166 13.35 10.2833 13.5583 10.575 13.5583C10.5892 13.5583 10.6024 13.5573 10.6154 13.5564C10.6404 13.5546 10.6642 13.5528 10.6916 13.5583C12.125 13.2917 13.275 12.15 13.5416 10.7083C13.6083 10.3667 13.3833 10.0417 13.0416 9.975C12.7 9.91667 12.375 10.1333 12.3083 10.475C12.1416 11.3917 11.375 12.1583 10.4583 12.325C10.1166 12.3833 9.89162 12.7083 9.95828 13.05Z"
        fill="currentColor" />
</svg>