<svg width="20" height="20" viewBox="0 0 20 20" fill="none" xmlns="http://www.w3.org/2000/svg">
<path fill-rule="evenodd" clip-rule="evenodd" d="M1.8749 12.5001C3.90824 15.6834 6.86657 17.5167 9.9999 17.5167C13.1249 17.5167 16.0832 15.6834 18.1166 12.5001C18.9999 11.1167 18.9999 8.87508 18.1166 7.50006C16.0832 4.31673 13.1249 2.4834 9.9999 2.4834C6.8749 2.4834 3.91657 4.31673 1.8749 7.50006C0.991569 8.88341 0.991569 11.1251 1.8749 12.5001ZM2.93324 8.17507C4.73324 5.35007 7.30824 3.7334 9.9999 3.7334C12.6916 3.7334 15.2666 5.35007 17.0666 8.17507C17.6916 9.15008 17.6916 10.8501 17.0666 11.8251C15.2666 14.6501 12.6916 16.2667 9.9999 16.2667C7.30824 16.2667 4.73324 14.6501 2.93324 11.8251C2.30824 10.8501 2.30824 9.15008 2.93324 8.17507ZM6.39157 10.0001C6.39157 11.9917 8.00824 13.6084 9.9999 13.6084C11.9916 13.6084 13.6082 11.9917 13.6082 10.0001C13.6082 8.00845 11.9916 6.39178 9.9999 6.39178C8.00824 6.39178 6.39157 8.00845 6.39157 10.0001ZM7.64157 10.0001C7.64157 8.70008 8.6999 7.64178 9.9999 7.64178C11.2999 7.64178 12.3582 8.70008 12.3582 10.0001C12.3582 11.3001 11.2999 12.3584 9.9999 12.3584C8.6999 12.3584 7.64157 11.3001 7.64157 10.0001Z" fill="#252525"/>
</svg>
