<svg width="20" height="20" viewBox="0 0 20 20" fill="none" xmlns="http://www.w3.org/2000/svg">
    <path fill-rule="evenodd" clip-rule="evenodd"
        d="M15.6251 7.78513V6.66663C15.6251 4.24996 15.0417 1.04163 10.0001 1.04163C4.95841 1.04163 4.37508 4.24996 4.37508 6.66663V7.78513C1.85447 8.09152 1.04175 9.36471 1.04175 12.5V14.1666C1.04175 17.8416 2.15841 18.9583 5.83342 18.9583H14.1667C17.8417 18.9583 18.9584 17.8416 18.9584 14.1666V12.5C18.9584 9.36471 18.1457 8.09152 15.6251 7.78513ZM5.62508 7.70953C5.6936 7.7087 5.76303 7.70829 5.83342 7.70829H14.1667C14.2372 7.70829 14.3066 7.7087 14.3751 7.70953V6.66663C14.3751 4.04163 13.6334 2.29163 10.0001 2.29163C6.36675 2.29163 5.62508 4.04163 5.62508 6.66663V7.70953ZM10.0001 16.0416C8.50842 16.0416 7.29175 14.825 7.29175 13.3333C7.29175 11.8416 8.50842 10.625 10.0001 10.625C11.4917 10.625 12.7084 11.8416 12.7084 13.3333C12.7084 14.825 11.4917 16.0416 10.0001 16.0416ZM10.0001 11.875C9.20008 11.875 8.54175 12.5333 8.54175 13.3333C8.54175 14.1333 9.20008 14.7916 10.0001 14.7916C10.8001 14.7916 11.4584 14.1333 11.4584 13.3333C11.4584 12.5333 10.8001 11.875 10.0001 11.875ZM2.29175 12.5C2.29175 9.52496 2.85008 8.95829 5.83342 8.95829H14.1667C17.1501 8.95829 17.7084 9.52496 17.7084 12.5V14.1666C17.7084 17.1416 17.1501 17.7083 14.1667 17.7083H5.83342C2.85008 17.7083 2.29175 17.1416 2.29175 14.1666V12.5Z"
        fill="currentColor" />
</svg>