<svg width="20" height="20" viewBox="0 0 20 20" fill="none" xmlns="http://www.w3.org/2000/svg">
    <path fill-rule="evenodd" clip-rule="evenodd"
        d="M10.0663 9.68329H10.133H10.158C12.483 9.60829 14.3163 7.70829 14.3247 5.36663C14.3247 2.98329 12.383 1.04163 9.99967 1.04163C7.61634 1.04163 5.67467 2.98329 5.67467 5.36663C5.67467 7.70829 7.49967 9.60829 9.91633 9.68329C9.96633 9.67496 10.0247 9.67496 10.0663 9.68329ZM6.92467 5.36663C6.92467 3.67496 8.30801 2.29163 9.99967 2.29163C11.6913 2.29163 13.0747 3.67496 13.0747 5.36663C13.0663 7.01663 11.783 8.35829 10.1497 8.43329C10.0413 8.42496 9.92467 8.42496 9.883 8.43329C8.22467 8.37496 6.92467 7.03329 6.92467 5.36663ZM5.62467 17.5416C6.86634 18.375 8.508 18.7916 10.1413 18.7916C11.7747 18.7916 13.408 18.375 14.658 17.5416C15.8163 16.7666 16.4497 15.7083 16.4497 14.5666C16.4497 13.425 15.808 12.375 14.658 11.6083C12.1747 9.94996 8.12467 9.94996 5.62467 11.6083C4.46634 12.3833 3.83301 13.4416 3.83301 14.5833C3.83301 15.725 4.46634 16.775 5.62467 17.5416ZM5.08301 14.5916C5.08301 13.875 5.51634 13.1916 6.31634 12.6583C8.39133 11.275 11.8913 11.275 13.9663 12.6583C14.758 13.1833 15.1997 13.8666 15.1997 14.575C15.1997 15.2916 14.7663 15.975 13.9663 16.5083C11.8913 17.9 8.39133 17.9 6.31634 16.5083C5.52467 15.9833 5.08301 15.3 5.08301 14.5916Z"
        fill="currentColor" />
</svg>